{"glyphs":{"ы":{"ha":1034,"x_min":66,"x_max":970,"o":"m 560 811 q 669 792 585 808 q 799 776 753 776 q 890 775 823 769 q 963 769 956 781 q 939 718 962 741 q 925 726 924 701 q 926 743 925 732 q 947 793 925 769 q 968 785 967 814 q 968 769 968 779 q 923 686 966 720 q 833 666 880 652 q 715 675 799 666 q 585 677 631 684 q 541 696 555 681 q 528 731 526 711 q 538 772 529 751 q 560 811 547 793 m 103 1333 q 255 1222 155 1301 q 411 1108 355 1143 q 555 703 556 987 q 555 600 555 646 q 554 498 555 555 q 551 397 553 442 q 537 300 543 335 q 517 213 532 264 q 486 121 503 161 q 505 168 487 145 q 511 167 511 179 q 509 148 511 161 q 507 134 507 145 q 505 117 506 123 q 503 100 505 110 q 498 83 500 90 q 491 70 495 77 q 481 58 487 62 q 469 53 476 54 q 513 197 473 98 q 492 146 507 165 q 490 149 488 141 q 492 170 490 155 q 513 419 522 332 q 514 500 513 442 q 515 587 515 557 q 512 667 515 616 q 502 752 509 718 q 481 829 495 787 q 448 906 468 871 q 382 985 425 949 q 287 1056 340 1020 q 206 1118 233 1092 q 159 1152 190 1135 q 105 1185 129 1168 q 72 1230 81 1203 q 68 1252 68 1241 q 72 1274 68 1263 q 80 1294 76 1286 q 92 1315 84 1302 q 103 1333 100 1328 z "},"э":{"ha":1119,"x_min":61,"x_max":1051,"o":"m 582 600 q 582 567 583 591 q 590 543 581 556 q 606 518 601 525 q 629 491 617 505 q 631 490 629 491 q 635 489 633 490 q 638 488 636 488 q 642 487 640 487 q 647 486 647 486 q 654 483 648 484 q 666 477 663 479 q 677 471 670 476 q 689 463 685 465 q 698 459 689 463 q 711 454 707 456 q 739 448 718 452 q 768 434 757 444 l 779 426 q 800 410 791 415 q 808 405 803 408 q 815 400 814 401 q 821 399 817 400 q 826 396 825 397 q 852 377 831 393 q 873 361 861 370 q 882 355 878 358 q 890 349 886 353 q 898 345 895 346 q 911 338 902 342 q 924 332 921 334 q 937 323 929 330 q 948 315 945 317 q 971 302 952 312 q 994 289 985 293 q 1008 281 998 286 q 1021 274 1017 277 q 1044 260 1035 264 q 1050 256 1048 259 q 1046 228 1054 255 q 1027 175 1038 201 q 1012 151 1016 149 q 1006 153 1009 152 q 982 164 982 164 q 977 166 981 164 q 971 170 974 168 q 964 175 970 171 q 955 180 958 179 q 931 193 935 191 q 920 200 928 195 q 909 208 913 205 q 883 221 888 218 q 876 226 880 222 q 870 231 872 229 q 865 233 868 232 q 861 233 863 233 q 858 236 861 235 q 850 240 854 237 q 842 247 846 243 q 834 252 837 251 q 823 261 830 255 q 812 269 815 267 q 785 285 788 282 q 762 302 762 301 q 749 308 758 305 q 738 313 741 311 q 726 319 731 316 q 699 335 720 321 q 684 343 688 340 q 677 345 682 343 q 671 346 673 346 q 650 357 651 357 q 637 361 646 358 q 624 365 629 365 q 590 381 597 376 q 567 408 578 389 q 559 420 564 412 q 551 434 553 429 q 543 457 543 448 q 544 496 541 479 q 548 524 540 496 q 567 576 556 551 q 582 600 578 601 m 556 1283 q 557 1283 556 1283 q 562 1282 560 1282 q 578 1252 572 1276 q 579 1222 579 1230 q 579 1218 579 1218 q 581 1214 579 1217 q 582 1210 582 1211 q 583 1192 583 1203 q 583 1172 585 1185 q 582 1156 582 1158 q 582 1124 582 1150 q 582 1097 582 1108 q 582 1063 582 1092 q 582 1031 583 1048 q 582 1008 582 1029 q 582 982 582 1005 q 582 959 582 975 q 582 936 582 951 q 582 913 582 925 q 582 884 582 905 q 582 863 582 875 q 582 838 582 857 q 584 822 582 833 q 587 807 586 811 q 589 794 587 803 q 590 781 590 785 q 590 757 590 777 q 590 735 589 751 q 590 711 590 726 q 590 688 590 700 q 590 661 590 674 q 590 637 590 647 q 590 633 590 633 q 587 625 590 629 q 537 491 545 507 q 517 453 529 477 q 498 420 517 450 q 479 393 495 418 q 453 366 473 385 q 426 343 450 362 q 412 332 419 338 q 403 325 408 330 q 391 315 397 320 q 382 307 385 309 q 371 298 378 304 q 359 289 363 292 q 353 284 358 288 q 346 279 347 281 q 323 264 338 274 q 304 251 308 254 q 288 240 298 248 q 270 228 277 232 q 258 220 266 227 q 245 213 251 214 q 214 195 218 197 q 195 184 210 195 q 184 179 194 184 q 170 171 179 176 q 159 164 161 165 q 119 144 157 163 q 84 127 103 134 q 62 113 76 125 q 76 170 56 114 q 102 222 96 225 q 123 236 123 236 q 161 259 142 251 q 198 274 182 269 q 225 290 203 277 q 241 300 231 294 q 254 307 252 305 q 271 316 267 315 q 277 317 275 317 q 281 319 278 317 l 285 320 q 296 330 288 321 q 312 342 305 338 q 316 345 312 342 q 323 349 320 347 q 335 359 327 351 q 346 368 343 366 q 369 384 354 374 q 388 396 384 393 q 423 419 415 411 q 439 435 429 425 q 456 449 450 445 q 462 454 457 450 q 468 460 467 457 q 495 480 491 477 q 519 505 514 495 q 537 532 537 530 q 559 567 548 548 q 568 586 562 572 q 579 606 575 600 l 594 640 q 548 514 581 604 q 551 526 549 521 q 551 530 551 526 q 551 552 551 543 q 551 581 549 564 q 551 604 551 591 q 551 628 551 618 q 551 651 551 643 q 551 673 552 669 q 549 686 551 678 q 547 699 548 694 q 543 730 541 720 q 543 755 543 751 q 543 777 543 769 q 543 806 543 795 q 543 829 543 819 q 543 853 543 845 q 543 875 543 869 q 543 899 543 897 q 543 924 543 921 q 543 952 543 937 q 543 989 543 982 q 543 1015 543 1004 q 543 1046 541 1034 q 543 1080 543 1061 q 540 1115 541 1104 q 536 1139 540 1130 q 525 1165 529 1157 q 522 1168 524 1166 q 521 1172 521 1171 q 518 1179 521 1172 q 522 1206 514 1180 q 541 1259 530 1233 q 556 1283 552 1284 z "},"ь":{"ha":332,"x_min":66,"x_max":247,"o":"m 110 689 q 66 783 68 724 q 106 878 65 842 q 151 920 121 897 q 189 939 182 944 l 149 902 q 164 918 149 903 q 203 958 183 937 q 187 941 193 947 q 173 928 179 930 q 167 930 167 925 q 174 948 167 936 q 182 1003 180 974 q 181 1070 183 1032 q 179 1126 179 1108 q 175 1202 163 1160 q 222 1259 187 1244 q 240 1221 236 1242 q 243 1167 244 1200 q 243 1124 243 1134 q 245 1035 241 1108 q 241 945 250 962 q 236 602 222 827 q 235 453 235 563 q 232 302 235 343 q 219 240 229 288 q 208 167 209 193 q 186 118 205 144 q 149 99 167 92 q 158 163 146 122 q 170 224 170 205 q 177 385 179 254 q 175 545 175 515 q 173 593 175 553 q 171 646 171 632 q 170 693 171 659 q 169 745 168 727 q 171 791 170 764 q 175 844 172 819 q 182 891 178 868 q 184 1017 186 936 q 184 1143 182 1099 q 174 1190 175 1164 q 184 1238 172 1215 q 221 1261 195 1260 q 234 1190 232 1240 q 239 1126 236 1141 q 240 1065 240 1095 q 231 1006 240 1036 q 202 955 221 977 q 168 921 190 937 l 179 935 q 203 958 202 959 q 191 941 205 956 q 179 928 190 940 q 165 913 168 916 q 153 901 163 910 q 136 888 142 891 q 121 880 130 884 q 103 872 113 875 q 129 898 109 878 l 152 920 q 123 846 122 888 q 152 769 125 803 q 162 749 160 758 q 157 730 164 739 q 144 715 149 720 q 126 701 140 711 q 110 689 113 690 z "},"я":{"ha":528,"x_min":68,"x_max":450,"o":"m 441 1340 q 439 1321 439 1333 q 437 1303 438 1309 q 437 1287 437 1298 q 438 1274 438 1276 q 438 1258 438 1267 q 438 1244 438 1249 q 438 1227 438 1241 q 439 1210 438 1213 q 442 1183 442 1199 q 442 1170 442 1180 q 442 1154 442 1160 q 442 1111 444 1130 q 442 1078 442 1099 q 442 1060 442 1072 q 442 1043 442 1048 q 442 1004 442 1013 q 442 967 444 985 q 442 925 444 945 q 442 888 442 910 q 442 856 442 863 q 442 817 442 845 q 441 783 442 803 q 442 757 442 774 q 442 744 442 753 q 442 731 442 735 q 441 707 441 709 q 442 681 442 693 q 441 656 441 666 q 439 641 441 651 q 437 625 438 631 q 435 614 437 624 q 433 597 433 604 q 427 568 433 586 q 385 450 427 567 q 418 540 395 480 q 416 534 416 538 q 416 530 416 534 q 416 502 418 518 q 412 487 415 496 q 410 472 410 477 q 406 442 407 454 q 401 414 407 431 q 397 384 397 404 q 395 358 395 365 q 392 335 395 347 l 343 205 q 387 320 350 221 q 387 317 387 321 q 385 312 385 313 q 387 301 385 309 q 387 289 388 293 q 382 266 382 273 q 383 252 382 260 q 384 243 384 244 q 380 216 384 239 q 378 205 378 212 q 378 195 378 199 q 373 167 381 194 q 354 113 365 140 q 339 88 343 87 q 339 98 339 91 q 339 107 339 104 q 342 119 340 109 q 345 136 345 130 q 344 146 345 137 q 343 159 343 155 q 349 182 343 167 q 347 194 349 186 q 346 205 346 202 q 347 213 347 212 q 388 324 354 231 l 391 332 q 379 299 385 316 q 366 261 373 282 q 354 228 358 240 q 355 251 357 240 q 358 277 355 260 q 361 302 361 301 q 366 332 368 323 q 370 363 366 347 q 373 377 370 368 q 376 391 376 387 q 376 422 378 414 q 387 467 377 441 q 408 520 396 494 q 420 547 419 547 l 385 450 l 385 453 q 393 491 393 479 q 397 517 395 498 q 403 551 397 525 q 403 572 403 560 q 403 601 401 583 q 403 623 403 604 q 403 636 403 627 q 403 650 403 646 q 403 675 403 667 q 401 704 401 690 q 401 743 401 734 q 401 777 401 755 q 401 811 401 799 q 401 853 401 830 q 403 895 401 868 q 401 929 401 897 q 401 949 401 936 q 401 968 401 963 q 401 998 403 989 q 401 1043 400 1013 q 402 1058 401 1047 q 404 1074 403 1069 q 399 1100 404 1077 q 397 1133 397 1108 q 399 1165 399 1149 q 396 1192 397 1188 q 403 1236 396 1211 q 407 1263 399 1237 q 426 1316 415 1290 q 441 1340 437 1341 m 411 1233 q 391 1217 406 1226 q 372 1202 377 1207 q 355 1179 369 1199 q 331 1160 345 1164 q 308 1147 320 1157 q 286 1128 286 1128 q 274 1122 285 1127 q 264 1117 270 1120 q 254 1109 259 1114 q 245 1104 248 1105 q 203 1084 229 1092 q 171 1072 201 1082 q 159 1067 161 1067 q 134 1053 148 1065 q 100 1031 125 1044 q 79 1012 83 1020 l 121 1128 q 115 1095 115 1109 q 109 1067 115 1086 q 107 1044 106 1059 q 114 1021 110 1035 q 119 1009 115 1020 q 126 993 123 998 q 130 981 127 990 q 136 966 133 971 q 149 955 140 962 q 160 947 159 948 q 184 922 168 940 q 206 913 190 916 q 231 906 214 911 q 254 899 237 905 q 277 892 275 894 q 278 892 277 892 q 280 891 279 891 q 286 891 281 891 q 290 891 290 891 q 298 889 293 890 q 305 888 304 888 q 340 876 319 887 q 355 872 346 873 q 370 868 365 871 q 372 867 370 868 q 374 867 373 867 q 379 865 378 865 q 385 863 380 864 q 391 860 385 863 q 399 856 396 857 q 426 846 422 848 q 437 845 431 846 q 423 787 444 842 q 396 732 403 731 q 387 738 391 735 q 373 742 382 741 q 359 746 363 743 q 349 750 355 747 q 339 754 342 753 q 337 755 339 754 q 335 757 335 757 q 330 758 335 757 q 300 765 309 765 q 283 770 296 766 q 275 773 282 770 q 264 777 269 776 q 251 781 260 779 q 237 785 241 783 q 214 791 227 789 q 191 799 191 799 q 180 803 189 800 q 167 806 172 806 q 144 812 156 808 q 132 824 140 817 q 119 834 123 831 q 98 859 103 849 q 85 882 87 878 q 75 914 84 883 q 69 937 69 930 q 69 959 66 952 q 76 987 75 977 q 96 1059 76 1013 q 118 1119 115 1104 q 140 1142 123 1133 q 174 1164 159 1156 q 187 1173 179 1166 q 199 1180 195 1179 q 245 1200 227 1195 q 263 1206 248 1202 q 285 1214 278 1210 q 316 1236 304 1229 q 332 1246 321 1238 q 347 1256 342 1253 q 370 1268 359 1264 q 395 1289 384 1275 q 412 1316 399 1293 q 445 1339 429 1337 q 448 1339 446 1339 q 450 1339 449 1339 q 445 1310 453 1337 q 426 1257 437 1283 q 411 1233 415 1232 z "},"з":{"ha":817,"x_min":60,"x_max":747,"o":"m 60 98 q 66 123 60 106 q 86 180 77 156 q 96 210 95 203 q 100 223 98 216 q 105 234 103 231 q 114 252 107 237 q 125 270 122 264 q 87 167 87 167 l 88 170 l 88 171 q 90 174 90 172 q 91 176 90 175 q 94 190 92 186 q 108 227 100 208 q 124 271 115 247 q 138 308 133 296 q 157 354 146 327 q 111 229 142 316 q 111 235 111 232 q 111 241 111 239 q 114 252 111 245 q 128 290 121 270 q 144 334 136 309 q 159 372 153 358 q 179 411 172 396 q 179 410 187 430 q 151 332 167 377 q 161 373 153 340 q 205 496 163 376 q 168 392 180 427 l 170 399 l 170 400 q 220 540 184 464 q 221 540 228 559 q 186 445 206 500 l 187 450 q 193 464 187 452 q 202 502 199 487 q 255 642 228 589 q 259 651 260 654 l 222 549 q 221 552 218 540 q 222 557 222 553 q 252 631 237 579 q 279 703 266 682 q 297 739 286 716 q 250 617 285 711 q 260 654 254 635 q 271 687 266 674 q 285 724 275 700 q 298 758 294 747 q 300 758 297 751 q 305 776 301 764 l 266 669 q 312 791 288 730 q 327 823 319 807 q 337 841 331 829 q 347 860 343 853 l 350 867 q 352 871 351 868 q 354 876 353 875 l 357 882 l 317 776 q 331 813 324 793 q 347 857 338 833 q 361 894 355 880 l 321 788 q 365 906 345 864 q 368 912 366 909 q 370 918 370 916 l 374 926 l 376 929 q 336 823 353 865 l 339 829 q 384 954 381 944 q 385 954 400 994 q 351 861 376 926 l 351 864 q 353 868 353 867 q 358 897 354 883 l 403 1020 q 365 916 396 1000 q 366 921 365 917 q 368 926 366 921 q 373 945 369 933 q 378 963 377 958 q 389 1004 382 983 q 408 1055 396 1025 q 425 1096 419 1084 q 387 991 387 991 l 387 996 l 388 996 q 391 1008 391 1005 q 433 1123 399 1028 q 435 1127 433 1124 q 393 998 399 989 q 401 1042 389 1005 q 408 1067 401 1042 q 412 1082 410 1072 q 416 1100 415 1093 q 423 1123 420 1109 q 429 1146 425 1128 q 433 1175 430 1147 q 438 1202 435 1188 q 449 1252 442 1214 q 472 1322 461 1322 q 480 1316 476 1322 q 484 1309 483 1312 q 477 1271 484 1302 q 477 1249 475 1263 q 477 1227 479 1242 q 477 1203 477 1215 q 477 1199 477 1199 q 479 1195 477 1198 q 480 1191 480 1192 q 483 1176 481 1184 q 486 1153 481 1169 q 486 1152 486 1153 q 486 1149 486 1150 q 487 1145 486 1147 q 488 1141 488 1142 q 491 1126 490 1135 q 492 1100 490 1112 q 499 1070 498 1084 q 496 1048 496 1053 q 497 1034 496 1044 q 498 1016 498 1023 q 502 1002 499 1012 q 505 990 505 993 q 506 971 506 987 q 507 962 506 968 q 514 926 514 928 q 515 912 514 921 q 517 899 517 903 q 525 878 518 895 q 529 861 526 872 q 530 852 530 859 q 532 842 530 846 q 536 833 533 837 q 544 806 540 827 q 549 789 545 800 q 552 770 552 777 q 556 747 553 757 q 570 712 556 747 q 572 696 571 707 q 576 682 574 686 q 580 666 578 677 q 583 650 582 655 q 588 630 586 643 q 591 612 590 617 q 592 609 591 612 q 594 606 593 606 q 595 601 595 602 q 598 595 597 600 q 605 575 600 593 q 618 534 614 555 q 628 507 621 525 q 644 467 637 491 q 658 427 650 446 q 670 404 669 411 q 671 400 670 403 q 671 396 671 397 q 684 365 680 378 q 692 332 686 350 q 696 319 693 328 q 700 306 699 311 q 705 292 701 301 q 709 281 708 283 q 720 258 713 274 q 727 249 724 254 q 734 237 730 244 q 739 228 738 231 q 744 216 742 224 q 747 206 746 208 q 743 177 751 205 q 723 123 734 149 q 708 98 712 96 q 699 114 700 113 q 681 151 684 141 q 671 174 678 157 q 661 197 661 197 q 652 222 654 220 q 647 239 650 228 q 643 254 644 250 q 632 288 633 282 q 632 292 632 292 q 625 303 631 296 q 617 315 618 311 q 615 320 617 316 q 612 326 613 324 q 606 341 609 331 q 602 353 602 351 q 589 396 594 373 q 579 426 585 410 q 564 460 568 442 q 557 480 562 467 q 552 500 553 494 q 541 536 548 510 q 536 572 536 571 q 529 600 533 589 q 517 637 517 632 q 515 649 515 640 q 514 663 514 658 q 503 694 503 684 q 498 726 500 719 q 492 736 496 730 q 487 746 488 743 q 477 791 479 768 q 476 805 477 796 q 475 818 475 814 q 467 850 467 844 q 467 863 467 850 q 465 882 467 876 q 458 907 463 890 q 457 939 457 916 q 458 950 457 941 q 460 963 460 959 q 456 977 458 968 q 453 990 453 986 q 450 1017 452 1005 q 449 1030 450 1020 q 446 1046 448 1040 q 442 1067 444 1065 q 438 1096 438 1090 q 438 1119 438 1111 q 438 1143 439 1137 q 437 1161 437 1161 q 441 1179 438 1165 q 444 1199 444 1192 q 444 1208 444 1204 q 444 1214 445 1211 q 441 1211 442 1214 l 481 1325 q 477 1313 480 1321 l 477 1312 q 473 1283 473 1293 q 471 1272 472 1282 q 469 1256 471 1261 q 463 1229 463 1236 q 456 1208 460 1218 q 452 1193 454 1203 q 449 1180 450 1183 q 441 1147 442 1153 q 432 1107 435 1134 q 421 1059 429 1080 q 395 1019 414 1038 q 395 1020 381 983 q 431 1119 403 1042 l 430 1115 l 430 1114 q 429 1109 430 1114 q 426 1101 427 1104 q 384 986 426 1101 l 426 1101 q 418 1070 420 1084 q 413 1055 416 1065 q 408 1039 410 1044 q 396 998 404 1020 q 378 948 388 975 q 363 911 368 921 l 399 1010 q 397 1006 399 1010 q 391 975 395 996 q 379 933 387 955 q 359 882 372 911 q 343 841 347 853 q 380 941 362 892 l 377 935 q 331 810 336 821 q 326 798 327 802 q 324 793 324 796 q 365 905 335 825 q 366 909 366 909 l 362 901 l 362 899 l 362 899 l 362 898 l 361 897 l 361 895 l 361 895 l 361 894 l 359 894 l 359 892 l 359 891 l 358 890 l 358 888 l 358 887 l 357 886 l 357 884 l 357 883 l 355 882 l 355 880 l 355 879 l 354 878 l 354 876 l 354 875 l 353 875 l 353 873 l 353 872 l 351 871 l 351 869 l 351 868 l 350 867 l 350 865 l 350 864 l 349 863 l 349 861 l 349 860 l 347 860 l 347 859 l 347 857 l 346 856 l 346 854 l 346 853 l 345 852 l 345 850 l 345 849 l 343 848 l 343 846 l 343 845 l 342 845 l 342 844 l 342 842 l 340 841 l 340 840 l 340 838 l 339 837 l 339 836 l 339 834 l 338 833 l 338 831 l 336 830 l 336 829 l 336 827 l 335 826 l 335 825 l 335 823 l 334 822 l 334 821 l 332 819 l 332 818 l 332 817 l 332 815 l 331 814 l 331 812 l 331 811 l 330 810 l 330 808 l 328 807 l 328 806 l 327 804 l 327 803 l 327 802 l 326 800 l 326 799 l 326 798 l 324 796 l 324 795 l 324 793 l 323 792 l 323 791 l 323 789 l 321 788 l 321 787 l 321 785 l 320 784 l 320 783 q 338 833 324 793 l 359 890 l 358 888 q 305 746 317 774 q 296 728 302 741 q 286 711 289 716 q 271 681 277 693 q 270 678 271 680 l 269 675 q 292 738 274 689 l 309 785 q 308 781 308 784 q 287 725 305 776 q 259 647 269 674 q 259 648 250 623 q 294 747 279 707 q 293 743 294 746 q 290 732 293 739 q 290 728 290 731 q 289 727 290 727 q 275 682 285 713 q 256 631 264 651 q 237 591 248 610 q 218 547 229 575 q 262 665 231 578 q 260 659 262 663 q 259 654 259 655 q 214 532 220 544 q 208 518 210 524 q 206 514 208 517 l 206 513 q 241 613 224 562 l 243 614 l 243 613 q 233 578 241 605 q 218 531 228 562 q 198 475 208 500 q 179 429 189 450 q 165 396 174 416 q 213 525 178 426 l 213 522 q 212 519 212 521 q 209 509 210 514 q 199 477 203 490 q 186 439 195 464 q 167 388 176 415 l 164 381 q 171 399 164 381 l 171 400 l 171 401 l 171 403 l 172 404 l 172 406 l 172 407 l 174 407 l 174 408 l 174 410 l 175 411 l 175 412 l 175 414 l 176 415 l 176 416 l 178 418 l 178 419 l 178 420 l 179 422 l 179 423 l 179 426 l 180 427 l 180 429 l 182 430 l 182 431 l 182 433 l 183 434 l 183 435 l 184 437 l 184 439 l 186 441 l 186 442 l 186 444 l 187 445 l 187 446 l 189 448 l 189 450 l 189 452 l 190 453 l 190 454 l 191 456 l 191 458 l 193 460 l 193 461 l 193 463 l 194 464 l 194 465 l 195 468 l 195 469 l 197 471 l 197 472 l 197 473 l 198 475 l 198 477 l 199 479 l 199 480 l 199 481 l 201 483 l 201 484 l 202 486 l 202 487 l 202 488 l 203 490 l 205 492 q 202 484 201 483 q 191 446 195 458 q 138 298 145 317 q 117 258 126 273 q 136 311 123 275 q 155 363 149 346 q 152 351 152 355 q 151 345 151 350 q 151 336 151 339 q 96 195 107 218 q 109 229 100 208 q 123 269 117 251 q 136 302 129 286 q 133 296 134 300 q 131 287 133 294 q 127 277 129 279 q 114 240 121 259 q 99 198 107 221 q 85 163 91 175 q 79 151 84 159 q 73 138 75 144 q 72 140 62 114 q 109 241 91 191 l 109 239 q 106 233 107 235 q 98 203 102 218 q 85 149 104 202 q 60 98 65 96 z "},"а":{"ha":571,"x_min":64,"x_max":502,"o":"m 64 9 q 68 89 65 58 q 83 161 72 119 q 114 235 94 203 q 98 194 111 227 q 77 142 84 161 q 75 127 71 123 q 88 239 83 161 q 106 358 94 317 q 107 395 106 363 q 110 438 109 427 q 115 473 111 449 q 125 515 118 498 q 140 549 132 533 q 140 553 145 566 q 115 499 129 532 q 110 472 106 480 l 114 479 q 115 490 115 484 q 117 583 119 522 q 117 675 114 643 q 136 907 113 818 q 140 1067 144 959 q 146 1226 137 1175 q 212 1276 161 1268 q 296 1259 262 1284 q 438 1152 355 1230 q 502 932 506 1061 q 464 814 495 891 q 483 863 473 848 l 477 840 q 458 789 471 821 q 444 757 446 757 l 463 807 q 456 787 461 802 q 446 768 448 766 q 460 823 441 770 q 464 834 463 831 q 469 831 473 853 q 456 783 464 804 q 389 652 434 709 q 279 571 345 595 q 208 526 255 557 q 134 480 161 494 q 119 515 119 498 q 135 551 119 532 q 166 583 151 570 q 199 606 182 597 q 297 667 229 628 q 399 730 365 707 q 431 766 410 738 q 457 795 453 793 l 437 739 q 442 751 438 743 l 463 807 q 457 792 460 802 l 446 766 q 452 780 448 769 q 460 804 454 785 q 472 835 467 822 q 480 850 477 848 q 458 795 472 818 l 464 815 l 490 887 q 468 834 480 846 q 463 857 461 827 q 428 991 458 929 q 342 1090 397 1054 q 309 1114 327 1101 q 270 1140 292 1126 q 236 1162 248 1154 q 215 1162 227 1162 q 191 1164 203 1162 q 170 1168 179 1165 q 153 1178 160 1172 q 146 1194 146 1184 q 155 1218 146 1204 q 176 1276 165 1246 q 159 926 190 1065 q 156 792 153 894 q 157 656 159 690 q 125 507 161 567 q 141 553 130 524 q 155 589 152 582 q 149 523 152 566 q 143 446 146 480 q 132 382 140 412 q 129 342 130 372 q 125 298 127 312 q 119 260 123 283 q 107 217 115 236 q 87 182 99 198 q 79 146 76 167 q 81 148 79 142 q 85 161 83 153 q 102 197 83 180 q 111 194 111 205 q 109 179 111 189 q 64 9 99 60 z "},"ъ":{"ha":766,"x_min":68,"x_max":704,"o":"m 669 926 q 612 814 651 901 l 612 815 l 613 817 l 613 818 l 614 819 l 614 821 l 614 822 l 616 823 l 616 825 l 616 826 l 617 827 l 617 829 l 618 830 l 618 831 l 618 833 l 620 834 l 620 836 l 620 837 l 621 838 l 621 840 l 621 841 l 623 842 l 623 844 l 623 845 l 624 846 l 624 848 l 625 849 l 625 850 l 650 918 q 636 880 646 906 q 620 835 627 854 q 609 807 613 815 q 621 836 613 815 q 633 871 628 856 q 639 890 639 886 q 622 842 635 876 q 608 802 609 807 q 616 827 610 808 q 627 858 623 845 q 635 872 632 871 q 471 557 590 727 q 397 450 431 494 q 317 374 362 406 q 170 290 271 335 q 137 278 160 288 q 102 266 114 269 q 76 267 90 263 q 102 348 81 313 q 164 385 123 382 q 464 597 378 464 q 574 762 545 722 q 615 840 589 789 q 647 901 642 891 q 638 871 644 887 q 627 843 632 854 q 614 813 623 831 q 601 785 605 795 q 622 841 608 802 q 637 886 636 880 q 628 859 636 879 q 614 823 620 838 q 610 807 609 808 q 630 862 616 822 q 652 922 644 902 q 673 973 659 943 q 703 1028 688 1004 q 703 1011 705 1023 q 701 994 701 1000 q 694 976 700 987 q 686 959 689 964 q 677 942 684 954 q 669 926 671 930 m 614 1221 q 552 1118 590 1190 q 487 1015 514 1047 q 411 907 472 993 q 319 774 350 822 q 237 686 293 741 q 159 605 182 632 q 141 594 152 602 q 119 578 130 586 q 98 564 109 570 q 80 559 88 557 q 68 572 72 560 q 98 646 72 614 q 164 693 125 678 q 239 759 194 712 q 296 814 285 806 q 404 949 340 856 q 481 1063 467 1043 q 589 1221 519 1111 q 598 1242 591 1226 q 610 1267 605 1257 q 623 1290 616 1278 q 637 1309 629 1302 q 651 1316 644 1316 q 614 1221 643 1264 z "},"м":{"ha":869,"x_min":66,"x_max":810,"o":"m 407 161 q 330 155 385 156 q 245 144 274 155 q 192 143 205 142 q 138 149 179 144 q 84 156 96 155 q 66 184 69 167 q 68 214 64 202 q 83 248 72 225 q 96 275 95 270 q 121 334 104 305 q 163 395 138 362 q 201 446 189 427 q 251 520 217 471 q 306 599 285 570 q 359 668 327 628 q 420 738 391 708 q 509 846 435 757 q 624 981 582 936 q 646 1014 627 983 q 682 1050 665 1044 q 671 1024 678 1042 q 659 994 665 1006 q 652 979 654 981 q 764 1191 694 1112 q 789 1222 766 1211 q 810 1214 810 1232 q 806 1196 810 1207 q 793 1131 800 1175 q 782 1059 787 1086 q 765 997 777 1032 q 736 935 753 962 q 747 965 741 944 q 760 1002 754 986 q 768 1021 765 1019 q 753 966 762 994 q 730 901 745 939 q 709 848 715 863 q 722 882 713 857 q 738 924 731 906 q 747 945 745 941 q 734 861 745 926 q 720 752 724 795 q 712 667 715 709 q 707 551 707 628 q 704 434 708 473 q 726 250 697 326 q 720 184 734 221 q 682 142 705 148 q 665 252 666 193 q 667 378 663 311 q 667 488 670 446 q 694 750 669 571 q 749 958 701 848 l 761 986 q 755 972 760 982 q 743 941 751 963 q 729 902 735 918 q 722 882 723 886 q 779 1043 745 982 q 736 926 742 943 q 755 1023 746 959 q 768 1105 764 1086 q 723 1081 755 1130 q 701 1051 705 1055 q 691 1036 697 1046 q 679 1016 685 1025 q 667 998 673 1006 q 658 984 662 989 q 654 981 654 979 q 673 1036 659 997 q 688 1078 686 1076 q 677 1044 685 1069 q 665 1006 670 1020 q 652 973 661 993 q 634 938 644 954 q 612 910 624 922 q 511 785 581 865 q 412 665 442 705 q 342 584 363 609 q 283 511 320 559 q 222 423 247 464 q 153 325 203 393 q 79 217 103 256 q 99 285 71 228 l 104 293 q 136 260 111 264 q 197 262 160 255 q 248 269 233 270 q 425 271 315 258 q 442 248 441 263 q 437 219 444 232 q 420 187 431 206 q 407 161 410 168 z "},"ю":{"ha":935,"x_min":64,"x_max":873,"o":"m 621 1065 q 837 1260 753 1128 q 871 1316 861 1314 q 872 1291 878 1317 q 857 1194 869 1265 q 842 1082 845 1123 q 764 788 823 911 q 749 749 764 788 q 754 765 750 753 q 779 827 762 799 q 781 826 783 834 q 777 806 781 819 q 766 644 768 755 q 751 475 764 533 q 748 440 750 465 q 745 401 746 415 q 740 368 743 388 q 731 330 736 347 q 718 296 726 312 l 716 298 q 731 331 720 321 q 736 328 735 335 q 734 311 736 321 q 709 233 727 256 q 696 231 703 225 q 734 345 697 245 q 735 351 736 354 q 712 290 724 302 q 705 311 705 283 q 718 418 707 336 q 726 545 728 500 q 779 834 728 719 l 804 894 q 799 880 802 890 q 798 875 798 879 l 774 818 q 780 838 776 822 q 805 1006 791 891 q 834 1180 819 1122 q 830 1210 841 1208 q 818 1190 823 1210 q 606 966 739 1039 q 585 976 589 964 q 591 1008 582 987 q 606 1040 600 1028 q 621 1065 613 1053 m 376 1046 q 582 1181 484 1092 q 567 1130 583 1173 q 571 1141 568 1134 q 579 1166 574 1149 q 590 1196 585 1184 q 602 1215 595 1208 q 582 1162 598 1187 q 578 1162 576 1154 q 583 1183 579 1169 q 604 1242 589 1210 q 629 1272 618 1275 q 591 1179 624 1256 q 604 1219 595 1188 q 624 1263 612 1251 q 618 1174 623 1246 q 612 1072 614 1101 q 604 988 610 1042 q 589 891 598 935 q 574 796 582 857 q 556 686 566 735 q 533 593 547 636 q 511 486 524 563 q 481 369 499 410 l 463 320 q 469 338 464 326 q 495 408 488 408 q 492 385 496 408 q 490 370 492 382 q 488 353 488 357 q 486 336 488 349 q 484 319 484 324 q 481 304 483 315 q 477 288 479 293 q 472 273 475 282 q 466 256 469 263 q 458 242 463 250 q 450 228 454 235 q 492 404 445 297 q 480 370 488 395 q 466 330 472 346 q 460 315 460 313 q 473 389 464 336 q 492 479 483 441 q 511 551 500 517 q 522 618 515 575 q 534 698 529 662 q 547 765 540 734 q 579 1089 578 971 q 578 1109 576 1095 q 579 1128 581 1123 q 582 1147 578 1133 q 586 1165 586 1161 q 591 1183 586 1169 q 597 1202 595 1198 q 604 1220 598 1206 q 611 1238 609 1234 q 618 1256 613 1242 q 625 1274 624 1270 q 622 1259 625 1271 q 616 1240 618 1246 q 610 1223 614 1234 q 604 1204 606 1211 q 597 1189 601 1196 q 590 1177 594 1181 q 583 1172 586 1173 q 597 1209 585 1177 q 613 1256 610 1241 q 586 1170 605 1219 q 555 1101 567 1120 l 590 1194 q 580 1163 587 1187 q 568 1128 572 1139 q 555 1099 564 1118 q 538 1069 547 1080 q 517 1046 530 1058 q 487 1025 503 1034 q 444 994 471 1019 q 392 956 416 970 q 346 949 368 941 q 342 970 343 963 q 347 989 342 977 q 355 1009 351 1002 q 366 1028 358 1016 q 376 1046 373 1040 m 100 1039 q 159 1066 119 1050 q 228 1101 199 1082 q 273 1146 256 1119 q 287 1162 275 1149 q 301 1179 298 1176 q 314 1195 304 1183 q 328 1213 324 1207 q 340 1229 332 1218 q 352 1248 347 1240 q 362 1266 357 1256 q 372 1286 368 1276 q 380 1305 376 1295 q 367 1272 376 1295 q 352 1232 358 1249 q 345 1214 346 1215 q 363 1272 347 1244 q 374 1264 374 1290 q 374 1253 374 1260 q 376 1215 374 1245 q 378 1175 377 1185 q 379 1138 378 1164 q 379 1097 380 1112 q 376 1060 378 1081 q 370 1020 374 1039 q 321 567 347 712 q 275 437 316 530 q 317 560 309 532 q 306 500 313 541 q 289 429 298 460 q 263 373 279 399 l 247 343 q 252 358 245 345 q 270 406 251 380 q 279 401 279 418 q 277 388 278 396 q 255 315 273 358 q 225 251 237 271 q 238 285 231 259 q 253 327 245 311 q 269 339 260 343 q 231 221 274 266 q 235 277 228 247 q 252 327 243 307 q 278 377 260 347 q 266 347 273 369 q 252 311 259 326 q 237 296 245 296 q 244 346 237 319 q 257 388 251 373 q 279 436 263 403 q 300 477 296 469 q 309 463 317 486 q 290 426 305 452 q 282 410 283 412 q 270 410 269 388 q 286 468 273 448 q 301 509 288 471 q 296 491 300 503 l 279 452 q 285 472 279 454 q 298 573 292 518 q 309 667 305 628 q 318 772 312 707 q 327 868 324 838 q 332 1142 346 1051 q 339 1196 330 1162 q 360 1257 349 1229 q 373 1290 372 1286 q 239 1039 324 1127 q 200 1001 221 1017 q 141 963 179 985 q 95 936 103 941 q 64 960 60 933 q 96 1028 66 974 q 100 1039 99 1035 z "},"г":{"ha":770,"x_min":71,"x_max":701,"o":"m 395 793 q 402 702 400 750 q 406 591 404 654 q 408 499 407 529 q 415 311 404 388 q 414 251 414 300 q 414 182 415 202 q 405 125 412 161 q 385 64 397 90 q 372 72 372 53 q 374 100 372 80 q 376 133 378 127 q 370 251 377 168 q 366 378 363 334 q 358 686 365 473 q 395 793 358 738 m 412 1142 q 297 1132 370 1147 q 201 1115 224 1116 q 162 1093 180 1108 q 134 1065 144 1078 q 108 1026 125 1053 q 85 991 91 1000 q 102 1036 88 1000 q 121 1089 117 1073 q 144 909 95 963 q 273 795 187 831 q 452 768 359 758 q 671 871 621 769 q 692 909 680 895 q 693 909 694 911 q 686 891 693 905 q 680 873 685 887 q 662 830 665 829 q 662 852 659 831 q 608 1038 673 968 q 553 1110 587 1081 q 477 1135 519 1139 q 414 1142 442 1127 q 407 1192 385 1157 q 429 1229 412 1215 q 467 1245 445 1242 q 511 1246 490 1248 q 553 1238 532 1244 q 602 1216 582 1234 q 641 1162 621 1198 q 669 1115 661 1126 q 699 1034 692 1080 q 701 945 707 987 q 677 860 694 903 q 653 803 663 825 q 625 753 643 781 q 585 705 608 724 q 533 675 562 686 q 316 663 444 650 q 130 762 180 690 q 72 907 62 836 q 80 964 72 933 q 93 1008 88 994 q 116 1065 98 1023 q 134 1111 134 1108 q 193 1196 155 1161 q 281 1236 232 1230 q 348 1246 293 1236 q 433 1248 403 1257 q 447 1226 446 1241 q 441 1198 448 1211 q 425 1166 435 1184 q 412 1142 415 1149 z "},"к":{"ha":275,"x_min":72,"x_max":218,"o":"m 217 1329 q 203 1268 212 1308 q 186 1197 195 1229 q 164 1139 178 1165 q 164 1141 152 1111 q 182 1187 179 1180 l 190 1214 q 186 1198 189 1210 q 165 979 164 1120 q 163 886 163 952 q 156 793 163 821 q 153 698 155 770 q 148 586 152 625 q 110 400 140 460 q 94 355 104 385 q 99 373 95 362 q 111 406 102 378 q 127 445 119 434 q 122 368 126 425 q 118 290 118 311 q 118 213 118 270 q 72 27 118 87 q 79 60 73 39 q 92 96 84 80 q 106 109 100 111 q 95 80 102 100 q 83 45 88 60 q 76 31 77 31 q 79 157 80 65 q 87 282 77 248 q 87 340 80 311 q 110 406 94 369 q 130 460 126 442 q 120 431 126 452 q 108 395 114 410 q 98 380 102 380 q 113 624 113 545 q 125 897 117 678 q 189 1207 115 1038 q 181 1189 186 1202 q 172 1162 176 1176 q 163 1137 167 1149 q 156 1118 159 1124 q 153 1112 153 1111 q 168 1181 159 1133 q 187 1264 176 1229 q 217 1329 198 1299 z "},"т":{"ha":962,"x_min":79,"x_max":890,"o":"m 829 1200 q 766 1035 808 1099 q 793 1111 788 1105 q 773 1052 783 1090 q 750 983 764 1013 q 709 936 736 954 q 677 927 694 929 q 648 925 661 925 q 616 932 636 925 q 587 941 595 939 q 555 955 579 944 q 528 967 532 966 q 459 1020 506 981 q 382 1073 412 1059 q 295 1103 346 1109 q 210 1061 244 1097 q 175 1034 186 1032 q 182 1059 168 1034 l 197 1093 q 190 1076 195 1090 q 148 960 186 1062 q 161 996 152 971 q 176 1038 170 1020 q 187 1062 183 1057 q 133 898 170 990 q 143 928 137 905 q 155 967 149 952 q 167 974 161 982 q 157 890 161 920 q 142 817 153 861 q 114 736 130 772 q 133 787 121 769 q 136 785 136 789 q 132 766 136 780 q 119 581 110 659 q 137 397 125 468 q 250 235 168 282 q 340 224 292 218 q 425 258 389 229 q 486 281 445 267 q 557 311 526 296 q 612 347 587 327 q 625 363 616 353 q 641 380 635 373 q 657 396 647 387 q 675 410 667 406 q 694 419 682 414 q 714 422 705 425 q 736 419 723 420 q 777 398 757 412 q 807 373 796 384 q 838 337 818 362 q 865 305 859 312 q 888 227 890 274 q 856 155 887 180 q 819 198 838 161 q 784 245 799 235 q 770 258 783 247 q 755 273 758 270 q 741 286 751 277 q 724 298 730 294 q 708 307 718 302 q 689 315 699 312 q 648 308 667 317 q 616 287 628 298 q 587 255 605 275 q 560 227 568 235 q 466 181 532 206 q 372 137 400 156 q 273 115 330 114 q 178 145 217 115 q 87 374 95 217 q 83 441 85 393 q 79 515 80 488 q 80 580 77 541 q 91 650 83 618 q 141 812 99 700 q 129 777 138 807 q 111 739 115 739 q 119 798 114 755 q 128 864 125 841 q 141 921 132 887 q 164 982 151 955 q 163 981 167 994 q 141 929 144 929 q 195 1089 153 985 q 187 1069 194 1085 l 165 1009 q 177 1044 170 1019 q 190 1083 184 1070 q 205 1116 195 1096 q 227 1150 214 1137 q 255 1175 239 1164 q 331 1211 289 1204 q 411 1188 373 1218 q 567 1080 456 1162 q 739 1038 662 1023 q 778 1074 761 1051 q 799 1119 795 1097 q 783 1075 795 1109 q 769 1036 772 1040 q 825 1171 806 1150 q 813 1140 822 1165 q 798 1099 804 1115 q 787 1084 791 1084 q 790 1101 787 1088 q 795 1119 793 1114 q 799 1136 796 1124 q 804 1154 802 1147 q 810 1169 807 1160 q 819 1186 814 1179 q 829 1200 823 1194 z "},"в":{"ha":646,"x_min":73,"x_max":578,"o":"m 503 1240 q 463 1203 486 1218 q 398 1168 441 1188 q 349 1145 355 1149 q 100 971 213 1100 q 75 933 88 960 q 83 948 80 943 q 95 982 88 958 q 110 1024 102 1006 q 129 1042 118 1042 q 168 994 142 1013 q 231 955 194 974 q 283 924 267 936 q 528 774 408 841 q 541 743 540 761 q 534 711 541 724 q 517 677 528 697 q 502 646 506 656 q 473 606 492 624 q 428 568 454 587 q 389 538 401 549 q 213 442 289 461 q 136 401 184 431 q 76 365 88 372 q 85 397 79 376 q 98 436 92 419 q 111 467 103 453 q 140 425 118 441 q 195 397 163 410 q 241 372 227 384 q 324 329 266 358 q 412 282 382 300 q 476 248 429 267 q 536 209 524 228 q 521 168 533 194 q 503 133 509 142 q 498 191 505 157 q 486 249 492 224 q 481 305 480 274 q 494 362 483 336 l 524 442 q 513 412 521 435 q 500 374 506 388 q 490 365 494 359 q 522 525 481 437 l 524 526 q 502 475 514 487 q 498 495 495 469 q 515 800 491 617 q 519 878 518 823 q 524 960 519 932 q 553 1044 530 990 q 578 1104 575 1097 q 557 1048 572 1092 q 529 983 543 1005 q 522 1096 530 1021 q 515 1207 514 1171 q 549 1348 515 1306 q 556 1277 559 1328 q 562 1200 553 1226 q 569 1104 570 1158 q 547 1012 568 1050 q 537 990 544 1008 l 534 989 q 576 1114 575 1107 q 562 1056 566 1088 q 559 985 559 1024 q 556 926 559 947 q 546 827 555 899 q 537 716 537 755 q 537 629 536 703 q 532 543 538 555 q 503 469 526 525 l 496 453 q 506 484 499 460 q 519 520 513 507 q 530 526 525 533 q 490 347 536 449 q 498 371 492 350 q 511 408 505 392 q 521 420 518 425 q 532 331 519 391 q 541 239 545 271 q 537 215 538 225 q 531 189 536 205 q 522 161 526 172 q 509 140 517 151 q 493 124 502 129 q 471 120 484 119 q 444 129 458 121 q 368 174 431 136 q 266 225 304 212 q 230 241 248 232 q 188 265 212 251 q 155 286 164 279 q 84 329 111 300 q 81 393 57 358 q 193 522 103 483 q 283 562 214 536 q 382 616 353 587 q 468 681 415 636 q 536 738 521 726 q 530 713 534 731 q 500 655 515 655 q 479 670 491 655 q 414 705 461 682 q 345 747 366 728 q 157 863 289 784 q 102 910 122 882 q 92 971 81 939 q 213 1153 113 1080 q 267 1196 251 1183 q 317 1227 283 1208 q 380 1255 350 1246 q 514 1328 473 1290 q 524 1276 559 1355 q 514 1259 519 1270 q 511 1251 511 1253 l 507 1245 l 503 1240 z "},"у":{"ha":633,"x_min":85,"x_max":538,"o":"m 526 1340 q 536 1141 534 1246 q 536 903 537 1035 q 536 703 534 772 q 535 589 536 666 q 535 453 534 513 q 537 339 536 393 q 502 183 548 254 q 494 380 494 259 q 495 578 495 500 q 494 842 494 586 q 495 1107 495 1099 q 492 1131 494 1109 q 490 1157 491 1152 q 489 1181 490 1162 q 488 1208 488 1200 q 489 1232 488 1215 q 492 1257 490 1248 q 498 1280 495 1267 q 507 1305 502 1294 q 518 1326 511 1316 q 526 1340 522 1333 m 164 811 q 249 812 193 817 q 334 811 305 807 q 496 810 419 808 q 516 781 513 800 q 511 745 519 762 q 487 714 503 727 q 453 701 471 701 q 373 703 431 700 q 293 700 315 705 q 234 701 263 709 q 174 694 205 693 q 130 719 142 696 q 130 738 129 728 q 136 759 132 747 q 144 776 141 770 q 155 795 146 781 q 164 811 163 808 m 127 1271 q 134 1158 127 1246 q 136 1021 140 1070 q 144 936 136 994 q 151 846 152 878 q 154 772 151 833 q 153 697 157 711 q 152 456 153 552 q 151 402 151 441 q 151 336 152 363 q 142 282 149 308 q 123 233 142 259 q 111 243 111 217 q 111 250 111 245 q 111 418 111 307 q 110 618 111 529 q 104 787 109 707 q 95 928 96 834 q 94 1031 94 1021 q 86 1115 87 1080 q 95 1194 85 1150 q 127 1271 104 1238 z "},"щ":{"ha":996,"x_min":79,"x_max":920,"o":"m 591 1284 q 633 1276 604 1290 q 642 1272 636 1275 q 650 1267 647 1268 q 659 1264 651 1265 q 694 1242 671 1263 q 706 1230 699 1238 q 719 1217 713 1221 q 745 1194 739 1202 q 753 1182 747 1190 q 760 1169 758 1175 q 766 1157 762 1165 q 770 1146 769 1149 q 778 1137 774 1142 q 785 1125 781 1131 q 791 1115 789 1119 q 806 1084 804 1090 q 817 1061 812 1066 q 831 1031 825 1050 q 837 1004 837 1005 q 841 989 838 998 q 845 978 844 981 q 848 964 846 972 q 852 951 850 955 q 854 941 852 949 q 857 929 856 933 q 861 916 859 925 q 865 901 863 906 q 872 878 871 880 q 876 845 875 871 q 883 822 876 842 q 892 795 884 812 q 902 761 899 781 q 904 745 903 755 q 905 728 905 735 q 906 718 906 726 q 906 708 906 711 q 911 681 909 703 q 914 656 913 674 q 916 624 914 635 q 918 587 920 608 q 918 574 918 585 q 917 559 917 564 q 918 532 917 549 q 918 502 918 510 q 917 477 917 492 q 918 449 918 458 q 918 433 918 444 q 918 416 918 422 q 914 385 918 408 q 905 353 909 363 q 899 332 903 345 q 894 315 895 319 q 889 302 891 311 q 887 292 887 294 q 831 149 875 244 q 815 121 819 125 q 806 108 812 117 q 795 95 799 99 q 772 72 789 87 q 749 53 755 56 q 726 49 745 52 q 707 42 723 46 q 696 39 700 41 q 666 38 689 38 q 656 37 663 38 q 644 35 648 35 q 631 35 640 35 q 618 35 621 35 q 585 35 598 33 q 559 34 575 37 q 522 34 536 33 q 495 37 521 34 q 469 35 486 35 q 446 37 460 37 q 423 35 433 35 q 400 42 414 35 q 396 43 396 43 q 391 44 395 43 q 387 46 388 45 q 372 49 373 49 q 351 57 369 50 q 342 61 350 58 q 308 76 323 66 q 285 88 300 83 q 259 106 277 91 q 237 125 256 110 q 236 126 237 125 q 233 127 235 127 q 228 130 233 127 q 226 132 228 130 q 224 134 224 134 q 216 140 221 136 q 208 146 210 145 q 182 167 189 160 q 156 190 175 175 q 133 224 142 202 q 125 236 130 228 q 119 247 121 244 q 107 279 110 274 q 100 307 103 288 q 99 327 99 315 q 97 342 99 332 q 95 355 95 351 q 91 378 92 366 q 90 393 90 384 q 91 406 91 401 q 92 421 92 411 q 91 437 91 431 q 92 443 91 438 q 92 450 92 448 q 90 456 91 452 q 88 463 88 461 q 86 477 87 467 q 84 492 85 487 q 82 505 84 496 q 79 517 80 513 q 79 544 79 521 q 80 574 80 567 q 80 595 80 576 q 80 624 80 601 q 80 646 80 631 q 82 659 80 647 q 84 675 84 670 q 87 693 85 682 q 90 705 90 704 q 96 738 90 707 q 97 749 96 741 q 98 761 98 757 q 104 793 99 777 q 148 914 107 804 q 149 916 148 914 q 149 918 149 917 q 151 921 151 920 q 114 821 133 872 l 114 819 l 114 821 q 119 843 114 822 q 130 884 123 864 q 149 936 136 903 q 164 974 161 968 l 127 872 q 152 940 132 884 l 174 1000 q 134 894 167 982 l 175 1006 l 176 1009 l 176 1010 q 165 977 172 998 q 151 939 157 956 q 138 906 145 922 q 140 910 140 907 q 142 920 141 913 q 191 1053 155 996 q 212 1096 202 1072 q 167 975 198 1062 q 214 1105 198 1072 q 224 1125 218 1112 q 232 1142 231 1138 q 252 1172 248 1166 q 271 1195 259 1176 q 296 1226 282 1213 q 319 1246 312 1240 q 351 1268 332 1260 q 373 1276 368 1274 q 387 1283 377 1279 q 400 1290 396 1287 q 422 1291 404 1291 q 446 1294 438 1294 q 472 1299 448 1294 q 496 1298 479 1299 q 509 1297 499 1298 q 522 1297 518 1297 q 548 1286 525 1295 q 559 1282 552 1284 q 570 1280 566 1280 q 594 1270 579 1278 q 609 1264 598 1267 q 604 1236 612 1263 q 585 1182 595 1208 q 570 1157 574 1156 q 553 1162 556 1161 q 530 1172 543 1169 q 509 1179 517 1177 q 494 1183 503 1180 q 483 1187 486 1185 q 475 1189 480 1187 q 469 1191 471 1191 q 463 1191 467 1191 q 458 1191 460 1191 q 433 1190 445 1192 q 407 1187 419 1187 q 394 1186 403 1187 q 384 1185 385 1185 q 361 1181 368 1185 q 334 1169 342 1171 q 311 1157 326 1168 q 278 1137 297 1147 q 268 1127 277 1135 q 255 1114 259 1119 q 231 1084 244 1101 q 213 1061 220 1067 q 190 1025 212 1059 q 176 998 176 1000 q 175 996 176 998 q 172 993 174 993 q 171 989 172 991 l 214 1107 q 206 1085 210 1096 q 195 1051 206 1085 q 174 989 184 1017 q 152 944 163 962 q 150 941 152 944 q 148 937 148 939 q 145 933 146 935 l 187 1054 q 182 1028 183 1039 q 170 985 178 1009 q 151 935 161 962 q 138 902 140 907 l 118 853 q 174 1002 126 876 q 133 888 136 894 l 132 883 q 170 989 164 975 l 167 983 q 165 978 167 981 q 125 867 164 974 q 161 966 132 886 l 161 967 q 160 963 161 966 l 157 949 q 155 941 157 949 q 153 928 153 932 q 111 812 151 922 l 107 804 q 142 902 125 852 l 149 921 q 145 906 149 920 l 144 903 q 138 872 140 888 q 136 844 136 850 q 130 819 130 819 q 125 787 126 795 q 119 753 123 779 q 119 731 119 736 q 119 705 119 712 q 119 681 118 686 q 119 655 119 663 q 119 625 118 635 q 123 600 122 601 q 129 574 126 587 q 132 545 130 560 q 132 515 132 532 q 131 503 132 513 q 129 487 130 492 q 134 464 129 477 q 138 434 138 442 q 138 412 137 419 q 140 406 140 406 q 144 398 141 403 q 148 392 148 393 q 160 357 149 389 q 163 347 163 347 q 168 340 164 345 q 174 334 172 336 q 198 304 187 316 q 208 292 199 301 q 221 277 217 282 q 250 260 228 271 q 277 233 271 241 q 289 224 281 231 q 300 216 297 217 q 324 197 313 203 q 334 193 334 193 q 349 186 346 186 q 370 179 369 180 q 374 177 372 178 q 377 175 376 176 q 382 172 377 175 q 392 167 389 167 q 401 163 395 164 q 411 160 408 161 q 419 157 414 159 q 426 156 425 156 q 431 153 430 155 q 435 151 433 152 q 438 151 437 151 q 439 149 439 149 q 463 142 454 142 q 486 142 471 142 q 509 144 498 142 q 534 142 526 144 q 563 145 562 145 q 600 144 579 146 q 624 144 613 141 q 658 144 642 146 q 670 142 662 144 q 684 142 678 141 q 705 146 689 142 q 719 146 708 146 q 735 149 730 146 q 765 155 755 155 q 788 161 783 157 q 812 182 793 164 q 836 205 830 198 q 843 216 836 206 q 854 231 850 225 q 872 262 857 233 q 897 308 895 311 q 848 183 899 304 q 850 195 848 187 q 853 205 852 202 q 858 222 854 210 q 863 239 861 233 q 873 275 868 254 q 878 305 879 297 q 878 321 878 311 q 878 338 878 332 q 878 369 878 351 q 878 393 879 385 q 878 408 878 399 q 878 423 878 418 q 878 449 878 431 q 879 479 878 458 q 877 496 879 484 q 875 511 875 509 q 873 524 873 522 q 874 537 873 529 q 875 548 875 545 q 872 572 876 559 q 870 585 871 575 q 868 601 869 595 q 868 610 868 602 q 867 621 868 617 q 864 636 865 627 q 861 648 863 646 q 853 684 856 677 q 842 713 852 686 q 841 724 842 715 q 838 738 840 732 q 836 750 837 739 q 831 766 834 761 q 826 792 829 785 q 818 821 819 807 q 812 844 817 831 q 806 868 806 863 q 802 880 804 871 q 798 895 799 890 q 791 920 798 907 q 777 951 779 949 q 766 974 774 960 q 750 1001 755 994 q 731 1038 735 1027 q 727 1048 731 1039 q 720 1061 723 1057 q 705 1084 716 1069 q 692 1095 701 1088 q 680 1105 684 1101 q 654 1128 669 1116 q 635 1141 647 1133 q 618 1154 624 1150 q 610 1160 613 1160 q 601 1162 608 1161 q 593 1164 594 1162 q 552 1179 563 1171 q 557 1207 549 1180 q 576 1260 566 1234 q 591 1284 587 1286 z "},"б":{"ha":732,"x_min":69,"x_max":659,"o":"m 609 937 q 581 886 601 911 q 575 882 575 879 q 583 906 575 887 q 595 938 586 916 q 610 977 604 960 q 614 993 616 993 q 587 910 598 943 q 555 835 575 878 q 507 760 534 792 q 446 703 480 727 q 378 648 414 680 q 321 595 342 616 q 259 529 301 575 q 205 469 217 483 q 163 430 176 442 q 121 401 149 418 q 69 378 94 384 q 76 433 64 403 q 110 480 88 463 q 174 522 123 491 q 244 581 224 553 q 297 637 258 594 q 364 709 336 681 q 420 762 392 736 q 488 816 431 773 q 563 894 544 859 q 593 937 590 935 q 587 917 597 940 l 570 867 q 576 887 571 872 q 647 1042 612 987 q 609 937 640 985 m 129 892 q 212 941 151 914 q 296 994 273 968 q 397 1084 336 1019 q 492 1172 457 1149 q 515 1192 498 1177 q 539 1212 532 1206 q 561 1231 547 1218 q 584 1253 575 1244 q 604 1274 593 1261 q 622 1299 614 1287 q 636 1325 629 1312 q 659 1337 652 1348 q 651 1312 663 1329 q 620 1226 620 1226 l 644 1295 q 637 1276 643 1290 l 618 1221 q 624 1238 620 1226 q 640 1282 628 1263 q 647 1279 647 1291 q 646 1263 647 1274 q 642 1061 640 1233 q 643 859 643 890 q 644 746 643 822 q 643 611 644 670 q 639 498 642 552 q 609 247 620 363 q 604 167 604 218 q 599 73 605 115 q 570 -1 593 31 q 562 33 563 12 q 565 85 562 53 q 568 125 568 117 q 578 229 572 153 q 593 345 585 304 q 601 431 600 385 q 601 532 602 477 q 600 618 600 587 q 600 792 601 715 q 600 966 600 869 q 605 1139 601 1062 q 617 1228 602 1173 q 644 1293 632 1283 l 620 1227 q 627 1245 623 1233 q 635 1267 628 1251 l 658 1328 q 644 1290 652 1317 q 626 1246 635 1263 q 602 1218 617 1229 q 414 1031 536 1116 q 350 963 392 1015 q 275 894 308 911 q 222 858 260 884 q 154 815 183 831 q 98 791 125 799 q 93 817 90 800 q 102 843 96 833 q 117 869 107 853 q 129 892 126 884 z "},"о":{"ha":971,"x_min":58,"x_max":913,"o":"m 186 267 q 163 236 179 258 q 139 201 148 214 q 119 169 130 189 q 102 133 109 149 q 119 179 106 141 l 137 224 q 58 50 99 110 q 73 109 61 80 q 106 175 84 137 q 137 228 129 213 q 100 127 127 198 q 110 155 102 132 q 120 184 118 178 q 130 211 122 190 q 141 240 137 232 q 153 266 145 248 q 166 294 160 283 q 181 318 172 304 q 199 344 190 332 q 217 366 208 355 q 220 341 224 358 q 212 315 216 324 q 198 290 208 307 q 186 267 189 274 m 647 388 q 750 199 738 301 q 747 160 753 184 q 732 118 742 136 q 709 106 722 100 q 692 155 704 129 q 672 193 680 180 q 641 238 665 205 q 614 275 617 271 q 647 388 604 316 m 544 879 q 549 751 551 833 q 549 621 548 669 q 502 469 553 586 q 529 540 528 544 q 522 511 530 538 q 483 408 513 469 q 479 404 479 404 q 500 464 483 415 l 514 499 q 504 466 511 491 q 493 430 496 441 q 482 398 490 419 q 469 363 475 377 q 455 332 464 350 q 437 301 446 315 l 463 372 q 456 355 460 366 q 450 338 454 350 q 444 317 446 326 q 437 298 441 308 q 429 284 433 289 q 423 281 426 279 q 453 362 427 316 q 461 369 460 373 q 446 330 457 361 q 500 452 483 433 q 484 411 496 444 q 468 370 469 370 q 496 454 476 400 q 518 507 515 507 q 509 480 515 500 q 496 444 502 460 q 488 427 491 429 q 538 564 510 502 q 529 538 536 559 q 509 488 513 490 q 507 514 505 486 q 509 641 510 532 q 507 768 507 750 q 544 879 513 833 m 133 1290 q 155 1138 138 1240 q 176 983 171 1036 q 196 882 180 935 q 235 768 212 830 q 269 670 259 707 q 294 618 277 655 q 326 556 312 582 q 354 506 339 530 q 389 430 361 494 q 446 340 418 366 q 498 375 476 349 q 542 435 521 401 q 585 483 563 468 q 723 685 665 578 q 747 727 728 694 l 768 762 l 768 761 q 753 722 764 751 q 735 681 743 692 q 793 827 741 705 l 770 764 q 776 779 772 769 q 815 882 812 882 l 792 819 q 796 834 793 825 q 840 947 818 898 q 823 902 836 939 l 806 856 l 806 857 q 830 963 814 882 q 867 1085 846 1044 l 887 1146 q 882 1130 884 1141 q 860 1070 875 1112 q 844 1023 845 1028 q 875 1108 875 1108 q 868 1088 873 1105 q 848 1042 852 1042 q 849 1062 846 1042 q 866 1161 856 1092 q 886 1265 876 1230 q 905 1309 888 1291 q 911 1306 913 1317 q 907 1286 911 1299 q 849 1038 884 1119 l 873 1103 q 865 1081 871 1096 l 845 1025 q 852 1042 848 1031 q 868 1082 859 1076 q 871 1073 872 1085 q 868 1057 871 1067 q 793 825 844 940 q 803 850 796 831 q 815 882 810 868 q 822 899 821 897 q 769 761 789 806 l 793 827 q 785 808 791 822 q 775 774 783 800 q 762 733 768 749 q 745 703 757 718 q 720 688 734 689 q 736 741 715 711 q 769 769 757 772 q 669 553 735 652 q 627 481 652 519 q 583 419 601 442 q 526 351 564 396 q 476 292 488 307 q 446 247 471 264 q 397 236 422 229 q 369 278 373 243 q 311 391 351 319 q 255 498 270 464 q 217 594 239 529 q 182 688 195 659 q 125 944 142 791 q 96 1199 96 1122 q 133 1290 106 1249 z "},"Р":{"ha":699,"x_min":69,"x_max":627,"o":"m 110 711 q 208 726 142 726 q 297 731 274 726 q 510 736 487 735 q 523 693 526 719 q 497 646 519 667 q 452 628 475 624 q 349 625 422 625 q 235 618 275 624 q 156 612 213 620 q 76 612 99 605 q 77 639 73 624 q 84 663 80 654 q 98 688 88 671 q 110 711 107 705 m 594 1213 q 551 1173 581 1199 q 500 1125 522 1147 q 464 1080 479 1103 q 410 1019 437 1051 q 349 942 384 987 q 301 879 315 897 q 229 802 271 854 q 170 731 187 749 q 141 710 161 724 q 109 686 121 696 q 85 661 98 677 q 69 628 73 646 q 102 709 77 643 l 119 755 q 116 663 104 711 q 163 583 127 616 q 231 524 182 564 q 302 458 279 484 q 359 414 320 444 q 426 359 399 384 q 472 304 453 334 q 540 231 487 289 q 624 145 593 174 q 627 68 644 117 q 578 33 609 20 q 560 46 568 37 q 493 125 540 77 q 435 186 446 174 q 335 289 378 259 q 245 362 302 312 q 161 433 189 412 q 73 604 61 513 q 122 764 85 699 q 181 821 136 789 q 241 876 227 853 q 338 987 290 944 q 398 1064 355 1006 q 468 1150 441 1122 q 590 1291 494 1181 q 625 1299 612 1317 q 618 1260 639 1283 q 594 1213 608 1232 z "},"ш":{"ha":772,"x_min":61,"x_max":694,"o":"m 677 1305 q 686 1238 678 1286 q 694 1170 693 1190 q 693 1101 696 1150 q 682 888 697 974 q 677 789 684 853 q 670 696 670 726 q 663 536 671 646 q 656 370 655 427 q 654 302 656 351 q 650 219 652 254 q 642 152 647 184 q 620 91 636 118 q 609 96 610 75 q 609 107 609 102 q 616 199 614 151 q 618 305 617 247 q 621 395 620 363 q 629 628 631 509 q 640 741 636 663 q 651 857 643 818 q 651 1090 654 966 q 651 1255 624 1194 q 677 1305 662 1286 m 183 1252 q 255 1165 208 1222 q 341 1063 302 1108 q 415 977 380 1017 q 472 931 441 952 q 548 886 503 910 q 610 849 593 861 q 647 675 675 804 q 636 644 644 665 q 621 606 628 623 q 614 589 614 589 q 655 701 651 693 q 629 618 637 644 q 600 549 620 593 q 555 476 579 506 q 511 435 532 458 q 465 382 490 412 q 426 336 439 353 q 290 217 349 247 q 136 142 236 184 q 61 126 61 98 q 68 149 61 134 q 163 250 84 214 q 397 381 326 317 q 443 423 422 400 q 493 482 464 446 q 533 530 522 518 q 561 556 540 537 q 592 586 582 575 q 615 615 602 597 q 633 651 628 633 q 646 670 646 673 q 631 628 647 667 q 621 604 623 608 q 621 608 604 560 q 633 640 625 618 q 637 652 636 650 q 646 674 637 652 q 639 658 643 669 q 616 598 621 598 q 614 621 612 598 q 605 697 624 662 q 548 751 586 732 q 492 784 533 761 q 422 826 450 807 q 373 868 395 845 q 310 940 350 891 q 247 1010 270 989 q 210 1058 237 1031 q 163 1112 182 1085 q 146 1168 145 1138 q 153 1191 148 1179 q 161 1211 157 1203 q 172 1232 164 1218 q 183 1252 180 1246 z "},"л":{"ha":680,"x_min":68,"x_max":620,"o":"m 618 1329 q 608 1248 616 1302 q 595 1151 600 1194 q 593 1069 591 1108 q 574 871 579 998 q 547 675 570 810 q 545 608 545 654 q 543 536 544 563 q 533 471 541 509 q 509 404 525 434 l 522 446 q 530 471 526 461 q 529 454 538 488 q 519 427 526 446 q 515 414 517 416 q 463 271 491 339 q 481 326 467 282 l 500 374 q 477 293 487 324 q 446 220 467 262 q 399 151 425 179 q 198 92 328 91 q 127 125 159 98 q 77 190 95 152 q 69 228 71 209 q 73 271 68 247 q 83 307 79 294 q 99 348 87 320 q 114 384 111 376 q 239 533 153 477 q 399 675 350 635 q 468 743 420 699 q 538 811 515 787 q 540 766 570 834 q 536 757 538 762 q 533 750 533 751 q 489 688 517 718 q 425 628 461 659 q 369 576 388 597 q 300 514 347 555 q 232 452 254 473 q 199 424 222 444 q 162 393 175 404 q 132 363 149 381 q 102 328 114 346 q 81 289 90 309 q 79 285 72 269 q 88 312 80 292 q 104 354 102 347 q 107 363 106 361 q 107 362 109 366 q 107 355 107 361 q 118 298 104 305 q 222 206 164 228 q 256 202 239 202 q 290 205 273 202 q 322 212 308 209 q 357 222 336 216 q 389 231 377 228 q 494 350 456 256 l 458 258 q 511 399 487 357 q 498 365 509 391 q 480 319 477 317 q 496 372 486 340 q 519 437 507 404 q 533 475 532 469 q 520 439 529 465 q 505 395 511 414 q 496 378 498 377 q 505 505 502 414 q 521 646 507 597 q 534 798 529 696 q 549 954 540 901 q 570 1141 557 1088 q 574 1178 570 1147 q 580 1221 578 1208 q 587 1256 582 1233 q 600 1296 593 1279 q 618 1329 608 1313 z "},"с":{"ha":811,"x_min":69,"x_max":754,"o":"m 373 918 q 500 895 429 879 q 606 968 571 910 q 628 987 617 986 q 624 968 636 989 q 602 913 608 913 q 605 933 601 913 q 608 949 606 939 q 673 1203 636 1123 q 753 1360 707 1291 q 715 1255 743 1314 q 741 1318 731 1310 q 738 1295 743 1321 q 705 1210 727 1248 q 697 1204 699 1199 l 722 1274 q 718 1252 724 1280 q 673 1046 682 1124 q 618 902 669 1034 q 633 943 624 910 q 655 983 643 977 q 639 690 635 800 q 625 543 639 643 q 612 389 610 444 q 610 345 612 376 q 609 293 608 315 q 617 251 610 271 q 623 195 623 222 q 614 138 624 167 q 583 103 605 110 q 576 141 579 122 q 572 182 574 160 q 570 220 571 205 q 571 262 570 235 q 572 300 572 289 q 574 342 572 311 q 576 381 576 374 q 598 715 604 587 q 607 801 601 743 q 614 888 613 859 q 640 958 620 913 q 665 1027 659 1004 q 639 960 651 977 q 639 981 633 954 q 709 1255 658 1076 q 732 1295 716 1278 q 738 1298 736 1302 q 730 1275 738 1294 q 709 1233 719 1240 q 715 1256 707 1232 q 742 1325 720 1272 l 753 1355 q 727 1284 743 1320 q 684 1200 711 1248 q 647 1133 656 1152 q 670 1194 655 1166 q 673 1194 673 1199 q 667 1173 671 1188 q 657 1110 665 1157 q 645 1040 650 1063 q 630 980 640 1017 q 606 914 620 943 q 571 860 591 886 q 419 780 499 776 q 351 802 381 773 q 346 865 321 830 q 373 918 359 899 m 180 1329 q 177 1281 182 1306 q 165 1240 172 1256 q 146 1195 159 1223 q 129 1154 133 1166 q 142 1190 132 1161 q 163 1237 160 1237 q 152 1193 160 1227 q 139 1143 144 1158 q 126 1102 134 1127 q 109 1057 118 1077 q 129 1114 118 1084 q 122 1096 127 1108 l 122 1095 l 122 1093 l 121 1092 l 121 1090 l 121 1089 l 102 1039 q 110 1059 103 1044 l 126 1105 q 118 1085 125 1101 l 104 1047 q 110 1063 106 1051 q 122 1092 115 1085 q 123 1090 125 1093 q 118 1069 123 1085 q 110 1013 110 1042 q 126 960 110 985 q 171 928 142 935 q 232 924 193 929 q 303 921 271 920 q 361 937 335 922 q 374 952 366 943 q 385 962 385 963 q 378 943 387 960 q 358 892 374 920 q 353 895 350 880 q 355 909 353 901 q 366 941 357 920 q 381 979 374 963 q 387 997 388 996 q 369 958 381 987 q 362 939 363 943 q 361 940 359 933 q 366 962 362 947 q 381 1009 369 978 q 404 1065 393 1040 q 412 1089 414 1089 q 404 1061 410 1082 q 393 1025 399 1039 q 380 1015 387 1010 q 387 1061 381 1036 q 399 1101 393 1085 q 417 1146 406 1118 q 434 1187 429 1175 q 425 1162 433 1184 q 412 1128 416 1141 q 407 1118 407 1116 q 441 1211 435 1196 l 422 1160 q 429 1183 423 1165 q 490 1325 449 1238 q 472 1276 484 1312 l 465 1255 q 476 1287 465 1256 q 487 1313 481 1309 q 490 1310 490 1314 q 483 1284 490 1302 q 469 1256 479 1265 q 465 1255 465 1251 q 472 1276 465 1260 q 444 1201 463 1246 q 422 1158 425 1156 q 437 1199 426 1168 l 437 1198 q 429 1179 434 1192 q 422 1157 425 1165 q 416 1141 419 1149 l 416 1142 q 422 1158 419 1149 l 437 1196 q 430 1179 435 1192 q 424 1160 429 1173 q 415 1137 419 1147 q 407 1114 411 1126 q 400 1097 403 1103 q 397 1093 397 1092 q 408 1123 400 1097 l 433 1187 q 420 1125 427 1168 q 405 1051 414 1082 q 380 994 396 1020 l 372 975 q 396 1042 381 1017 q 400 1043 399 1046 q 393 1015 399 1032 q 381 980 388 997 q 368 947 374 963 q 359 923 362 932 q 357 914 355 914 q 366 939 361 922 q 375 968 370 955 q 388 985 380 981 q 376 940 384 972 q 361 890 368 907 q 340 850 355 872 q 304 818 326 829 q 117 821 243 807 q 79 863 91 834 q 71 920 68 891 q 83 977 73 948 q 145 1149 104 1070 q 163 1142 170 1164 q 137 1092 157 1128 q 123 1067 125 1072 q 104 1043 114 1044 q 111 1066 99 1042 q 121 1091 114 1073 q 132 1122 127 1109 q 137 1134 137 1135 q 125 1101 134 1126 q 110 1061 115 1077 q 106 1048 104 1046 q 117 1080 110 1058 q 131 1118 125 1103 q 137 1135 137 1134 q 117 1080 133 1108 q 111 1078 111 1072 q 115 1100 111 1084 q 175 1278 144 1215 q 152 1209 168 1256 q 133 1157 136 1162 q 142 1213 137 1175 q 155 1279 146 1251 q 180 1329 163 1308 z "},"ё":{"ha":758,"x_min":65,"x_max":693,"o":"m 152 397 q 222 471 175 445 q 340 519 269 498 q 422 553 392 541 q 498 576 452 564 q 583 589 544 589 q 607 594 591 590 q 635 601 623 598 q 660 603 647 604 q 681 594 673 602 q 692 570 689 586 q 680 538 684 548 q 666 513 675 529 q 643 489 656 496 q 610 481 629 481 q 496 471 551 483 q 437 457 467 465 q 373 437 407 449 q 319 416 339 425 q 256 391 298 408 q 201 369 214 374 q 155 336 182 366 q 115 305 129 305 q 152 397 123 354 m 148 728 q 190 770 164 754 q 256 800 216 785 q 312 821 296 814 q 502 868 406 861 q 570 877 522 872 q 644 887 618 882 q 653 868 651 879 q 650 845 655 857 q 641 824 646 833 q 627 802 636 815 q 616 784 618 788 q 545 767 593 772 q 477 755 496 762 q 448 753 469 755 q 415 748 426 750 q 387 743 404 746 q 355 735 369 739 q 327 726 340 731 q 250 701 298 720 q 182 675 201 681 q 170 665 178 673 q 154 650 161 656 q 138 637 146 643 q 123 633 130 632 q 111 642 117 633 q 148 728 121 685 m 102 1031 q 227 1139 145 1107 q 273 1158 248 1150 q 332 1173 297 1165 q 380 1184 366 1180 q 463 1200 401 1185 q 557 1213 524 1214 q 600 1220 571 1213 q 649 1227 628 1227 q 681 1210 670 1226 q 608 1112 662 1115 q 494 1099 557 1109 q 441 1090 468 1096 q 381 1076 414 1084 q 330 1063 349 1067 q 205 1024 252 1053 q 191 1020 203 1024 q 174 1015 178 1016 q 159 1009 171 1013 q 144 1003 148 1005 q 132 996 141 1001 q 117 987 122 991 q 106 978 113 983 q 96 966 100 972 q 87 952 91 960 q 66 937 75 930 q 71 962 58 943 q 102 1031 85 1010 z "},"р":{"ha":780,"x_min":58,"x_max":712,"o":"m 264 1284 q 431 1229 330 1287 q 522 1096 495 1179 q 532 930 548 1013 q 496 833 530 910 q 511 879 499 840 q 533 935 524 918 q 363 629 490 742 q 216 511 319 576 q 186 476 208 506 q 186 477 182 471 q 193 491 187 481 q 240 574 216 578 q 262 549 251 572 q 296 510 277 530 q 338 465 315 490 q 373 426 361 439 q 446 359 399 406 q 521 292 494 312 q 700 214 579 247 q 711 174 713 198 q 695 132 709 149 q 660 108 681 115 q 617 119 639 100 q 427 227 502 142 q 364 288 408 248 q 300 350 320 327 q 198 472 222 430 q 252 617 183 532 q 319 664 266 629 q 392 728 373 699 q 422 761 400 738 q 456 797 445 784 q 483 830 468 810 q 507 871 498 850 q 502 838 517 878 q 486 800 500 837 q 526 913 507 876 q 515 884 524 907 q 500 844 503 846 q 498 863 496 841 q 452 1048 503 967 q 340 1146 412 1116 q 294 1161 330 1157 q 240 1176 259 1165 q 233 1218 221 1187 q 239 1234 235 1223 q 245 1252 243 1245 q 254 1268 248 1259 q 264 1284 259 1278 m 245 1290 q 258 1180 247 1259 q 266 1057 270 1101 q 267 905 269 991 q 256 754 266 819 q 241 665 254 728 q 229 567 229 601 q 218 494 228 530 q 189 408 208 457 q 163 339 170 358 q 168 355 163 339 q 182 394 174 372 q 194 425 191 416 l 206 457 q 199 442 205 454 q 190 412 198 435 l 172 363 q 198 431 187 420 q 198 416 202 434 q 197 407 198 412 q 134 255 161 292 q 144 282 138 263 q 156 315 151 301 q 164 330 161 330 q 119 203 161 317 l 144 269 q 136 248 141 262 q 125 219 133 240 q 113 183 118 198 q 107 170 107 168 q 124 214 110 178 q 145 271 138 251 q 134 241 141 262 q 120 204 126 220 q 114 189 114 189 q 127 227 118 201 q 144 272 137 252 q 153 296 152 292 q 132 239 146 281 q 106 168 118 197 q 77 114 94 138 q 85 136 79 118 l 106 193 l 75 104 q 86 136 77 113 q 100 174 95 159 q 104 187 106 190 q 91 149 102 178 l 72 98 q 82 124 75 104 q 94 157 90 144 q 98 171 99 171 q 87 137 95 163 q 73 96 80 111 q 58 79 66 80 q 95 163 80 159 q 85 135 94 156 q 72 100 77 114 q 69 88 66 85 q 99 172 80 115 q 87 141 96 165 q 73 101 79 117 q 68 84 68 85 q 110 201 107 193 q 75 104 81 123 q 88 144 77 114 q 105 191 99 174 q 121 228 111 208 q 140 259 130 248 q 123 214 136 248 q 109 171 111 180 q 125 218 114 186 q 144 269 137 251 q 134 240 141 260 q 121 206 126 220 q 117 193 115 193 q 152 289 148 278 q 144 269 149 283 l 119 202 q 134 243 122 209 l 155 296 q 144 266 152 290 q 126 222 130 222 q 125 225 125 222 q 140 292 126 256 q 163 345 153 328 q 198 406 172 361 q 191 383 197 403 q 176 341 184 363 q 159 311 167 319 q 180 389 159 336 q 201 444 201 442 q 171 363 184 401 q 228 518 224 507 q 204 452 222 505 q 174 372 186 400 q 191 479 184 407 q 208 587 198 552 q 225 841 229 730 q 226 911 225 853 q 226 994 227 970 q 220 1060 225 1017 q 206 1138 216 1103 q 245 1290 199 1221 z "},"ж":{"ha":933,"x_min":66,"x_max":864,"o":"m 544 583 q 644 625 572 613 q 739 651 715 637 q 828 633 788 669 q 863 547 868 598 q 857 466 867 510 q 838 401 846 422 q 806 327 829 380 q 819 365 808 336 q 837 412 830 393 q 842 426 844 430 q 807 331 807 331 q 827 387 811 339 q 822 370 826 380 l 787 281 q 806 336 792 297 q 829 396 821 374 q 777 252 815 351 q 789 284 780 260 q 803 323 798 308 q 810 338 808 339 q 719 121 769 221 q 742 179 727 137 q 766 237 757 221 q 756 197 765 224 q 739 149 747 170 q 730 130 730 127 l 750 184 q 745 170 747 180 l 724 117 q 730 136 726 122 q 747 176 736 165 q 749 174 750 178 q 745 152 749 167 q 723 102 743 130 q 719 99 719 95 q 726 121 719 103 l 750 184 q 742 165 747 179 l 726 117 q 731 134 727 122 l 750 186 q 743 165 747 179 q 730 129 741 159 l 718 95 q 723 117 718 98 q 808 336 746 212 q 798 307 806 328 q 784 270 789 285 q 779 256 779 255 q 791 291 783 266 q 807 335 800 316 q 814 355 814 354 l 788 288 q 796 311 789 293 q 829 392 817 372 l 806 327 q 811 340 808 332 l 831 399 q 826 382 830 393 l 803 317 q 810 338 804 323 q 864 472 852 458 q 859 455 863 468 q 853 437 854 442 q 848 421 852 433 q 840 404 844 410 q 832 389 837 397 q 822 374 827 381 q 765 540 837 510 q 660 530 727 551 q 572 507 593 509 q 514 487 536 481 q 514 522 498 491 q 544 583 525 553 m 205 586 q 233 609 218 598 q 269 631 248 620 q 300 648 290 643 q 338 666 311 654 q 372 681 366 678 q 409 688 378 682 q 453 695 439 694 q 488 692 467 696 q 526 675 510 688 q 541 633 538 656 q 541 577 544 609 q 538 532 538 545 q 481 332 536 454 q 491 361 484 338 q 504 399 498 385 q 514 407 510 414 q 503 357 513 387 q 482 301 494 328 q 468 266 471 274 q 479 295 471 273 q 492 332 487 317 q 498 346 498 347 q 461 247 477 294 q 475 285 464 254 l 491 330 q 475 283 488 323 l 456 233 q 468 266 458 240 q 484 308 477 292 q 488 320 490 324 q 470 233 484 307 q 431 126 456 159 q 443 186 434 153 q 457 236 452 220 q 479 296 463 252 q 498 349 495 340 l 467 262 q 483 305 469 270 l 502 359 q 490 325 498 349 q 475 284 481 301 q 467 262 468 267 q 498 347 483 302 q 472 285 475 279 q 476 311 471 286 q 522 442 488 365 q 517 425 522 439 q 508 401 511 411 q 500 379 505 391 q 494 363 496 368 q 491 362 491 358 q 496 548 510 467 q 473 571 487 563 q 446 583 458 579 q 412 585 434 586 q 380 581 391 583 q 345 573 369 579 q 315 567 320 567 q 245 527 294 560 q 170 496 195 494 q 205 586 172 529 m 385 1313 q 355 1168 378 1265 q 327 1019 332 1070 q 298 929 320 986 q 273 860 277 872 q 289 910 277 871 q 312 967 301 949 q 229 727 297 906 q 247 774 232 735 l 267 831 q 199 625 241 728 q 210 662 203 635 q 224 707 217 689 q 236 723 231 724 q 161 492 224 662 q 172 519 165 499 q 184 555 179 540 q 193 571 190 570 q 130 382 180 517 q 141 410 134 389 q 154 446 148 430 q 163 465 160 463 q 85 263 144 391 q 101 303 91 275 q 119 351 111 331 q 126 372 126 372 q 77 239 92 278 q 101 303 83 254 q 129 378 119 353 q 68 216 113 326 q 85 260 72 227 q 115 339 118 338 q 94 277 110 320 q 76 229 77 235 q 91 269 80 237 l 107 311 l 109 309 q 107 298 107 305 q 68 157 95 199 q 68 205 62 180 q 87 259 75 229 q 103 305 99 289 l 83 252 q 88 271 84 258 q 100 300 92 281 q 115 340 107 320 q 122 359 122 359 q 112 334 118 351 q 101 304 106 317 q 92 278 96 290 q 122 361 110 328 l 102 307 q 109 328 104 312 q 140 400 115 345 l 156 439 q 144 406 152 430 q 129 366 136 382 q 121 347 122 349 q 168 487 126 369 q 162 470 165 481 q 155 448 159 458 q 147 426 151 437 q 141 410 144 415 q 137 406 138 404 q 203 608 155 476 q 189 568 199 598 l 171 519 q 189 589 179 544 q 211 671 199 635 q 240 736 222 707 q 229 706 236 728 q 216 668 222 684 q 208 654 210 652 q 229 726 216 689 q 260 813 241 762 q 286 884 279 864 q 276 854 283 876 q 262 816 269 833 q 254 798 256 799 q 315 974 293 932 q 300 935 311 966 q 281 891 283 891 q 298 984 288 936 q 323 1096 308 1032 q 343 1188 338 1160 q 385 1313 354 1271 z "},"й":{"ha":514,"x_min":71,"x_max":439,"o":"m 167 1343 q 235 1305 210 1344 q 259 1221 260 1265 q 257 995 266 1095 q 210 807 248 895 q 199 777 209 802 q 203 791 201 781 q 210 808 206 795 l 227 849 q 221 825 228 848 q 198 707 220 815 q 153 547 176 600 l 115 457 q 126 488 118 465 q 140 527 134 510 q 149 547 146 544 q 81 340 119 433 q 98 387 85 349 q 121 437 111 425 q 111 259 109 320 q 162 163 118 203 q 262 122 206 123 q 347 151 308 118 q 408 229 385 184 q 381 160 403 218 l 370 132 l 370 133 q 404 225 385 178 q 393 193 401 218 q 376 148 377 149 q 430 288 397 229 q 418 256 426 278 q 404 218 410 235 q 395 201 397 202 q 438 321 415 271 q 427 287 434 312 q 415 245 420 262 q 406 231 410 229 q 290 464 407 340 q 208 589 250 510 q 175 669 176 621 q 202 751 174 718 q 233 730 221 749 q 254 685 244 711 q 275 647 264 659 q 332 578 293 623 q 397 494 370 533 q 437 414 425 454 q 412 244 461 328 q 408 244 406 232 q 431 307 416 277 q 431 296 439 320 q 422 270 429 288 q 416 251 416 255 l 380 161 q 396 208 385 172 q 416 259 414 259 q 374 144 416 251 l 412 247 q 400 208 411 243 q 386 163 389 172 q 371 126 382 155 q 349 85 359 98 q 323 56 339 73 q 288 28 307 39 q 172 23 233 0 q 85 102 110 46 q 71 159 73 129 q 73 229 69 189 q 76 288 76 269 q 122 452 80 362 q 109 412 119 444 q 91 366 98 381 q 182 627 123 496 q 163 578 176 614 q 142 522 151 541 q 191 757 175 697 q 214 821 198 780 q 236 879 231 861 q 222 841 232 871 q 202 796 206 796 q 221 1013 227 906 q 221 1036 221 1017 q 221 1062 221 1055 q 220 1086 221 1069 q 219 1112 220 1103 q 216 1135 218 1122 q 212 1160 214 1149 q 205 1183 209 1172 q 181 1202 197 1191 q 155 1223 165 1214 q 136 1245 145 1233 q 130 1272 127 1257 q 145 1302 132 1286 q 167 1343 159 1333 z "},"п":{"ha":834,"x_min":81,"x_max":760,"o":"m 155 1248 q 155 656 157 806 q 144 584 152 636 q 132 504 136 532 q 123 433 127 476 q 115 354 118 391 q 140 287 114 316 q 205 254 165 258 q 307 241 235 248 q 418 227 380 235 q 514 216 452 224 q 602 205 576 208 q 635 204 613 199 q 671 214 658 209 q 692 212 685 218 q 675 166 684 198 q 658 123 667 134 q 668 173 661 148 q 689 231 675 198 q 708 279 703 264 q 695 244 704 270 q 680 201 686 218 q 669 179 673 183 q 675 349 673 228 q 686 534 678 469 q 694 677 690 581 q 704 823 699 773 q 726 1036 709 897 q 724 1107 726 1074 q 732 1178 723 1141 q 760 1242 741 1215 q 758 1075 770 1184 q 745 936 745 966 q 739 862 745 916 q 734 779 732 808 q 726 639 734 730 q 718 506 718 548 q 715 404 715 477 q 706 278 715 330 q 671 182 697 227 q 647 130 669 157 q 642 129 642 125 q 650 149 642 133 q 701 260 692 247 q 637 103 682 149 q 446 106 563 87 q 269 130 319 118 q 203 140 248 134 q 134 151 157 146 q 81 312 57 180 q 96 417 85 347 q 113 543 107 487 q 115 650 118 598 q 117 1149 114 928 q 155 1248 125 1200 z "},"х":{"ha":894,"x_min":73,"x_max":823,"o":"m 481 1194 q 498 1242 486 1206 q 514 1276 511 1278 q 513 1179 511 1244 q 514 1081 515 1115 q 505 983 513 1055 q 499 873 498 911 q 484 727 500 821 q 464 601 467 633 q 456 557 463 579 q 437 503 450 536 q 420 461 423 469 q 434 500 425 473 q 450 547 444 526 q 458 567 457 567 q 441 488 457 534 q 412 419 426 441 q 423 453 416 427 q 435 494 430 479 q 448 505 441 510 q 423 258 444 430 q 415 222 420 240 q 402 180 410 203 q 391 145 395 157 q 346 96 377 114 q 281 79 315 79 q 213 88 247 80 q 128 149 165 110 q 73 236 91 187 q 123 415 57 324 q 176 450 144 439 q 240 458 209 460 q 305 454 271 456 q 465 361 378 445 q 503 328 477 350 q 543 292 528 305 q 582 263 559 279 q 627 236 605 247 q 713 235 669 213 q 791 300 758 258 q 814 336 799 309 q 815 336 818 345 q 808 319 814 332 q 799 294 806 315 q 781 252 785 252 q 779 256 780 251 q 771 349 792 305 q 700 395 750 392 q 446 357 604 415 q 427 340 441 353 q 387 320 387 305 q 392 342 385 326 q 452 439 404 399 q 559 490 499 480 q 796 481 711 532 q 818 444 811 465 q 822 395 825 423 q 816 352 819 366 q 804 305 812 338 q 652 119 755 144 q 623 118 635 119 q 595 123 612 117 q 570 134 579 130 q 545 149 560 138 q 522 167 530 160 q 499 185 513 174 q 476 203 486 197 q 418 255 458 217 q 345 315 378 293 q 274 346 312 338 q 144 343 217 355 q 95 316 136 342 q 79 309 79 305 q 84 330 77 313 q 115 427 122 430 q 130 313 98 369 q 217 218 161 256 q 300 191 252 194 q 388 203 349 187 q 412 217 414 229 q 404 195 412 210 q 380 130 382 130 q 384 156 378 130 q 408 400 399 264 q 448 511 415 465 q 439 483 445 505 q 428 447 434 461 q 415 433 422 433 q 420 465 415 448 q 428 492 425 483 q 441 524 431 500 q 453 551 452 547 q 445 522 452 545 q 426 479 431 479 q 422 481 423 479 q 443 617 425 517 q 458 773 461 718 q 468 897 458 811 q 475 1029 477 983 q 474 1078 475 1042 q 474 1139 473 1114 q 477 1187 475 1164 q 518 1286 480 1200 q 481 1194 507 1229 z "},"е":{"ha":682,"x_min":61,"x_max":618,"o":"m 236 643 q 313 666 254 652 q 396 705 373 680 q 514 826 481 764 q 617 1002 575 907 q 596 947 612 987 q 578 901 581 906 q 585 917 581 905 q 592 940 589 929 q 600 962 595 951 q 607 979 604 972 q 613 983 610 985 q 586 909 604 937 q 581 905 582 902 q 596 952 585 918 q 616 1004 608 986 q 473 712 563 827 q 302 559 429 636 q 280 548 300 557 q 252 536 260 538 q 229 534 243 534 q 203 540 214 533 q 199 567 195 551 q 210 593 203 583 q 224 618 216 604 q 236 643 233 633 m 340 1321 q 332 1242 340 1302 q 328 1149 323 1183 q 296 939 315 1077 q 266 736 277 802 q 236 652 256 705 q 210 579 216 598 q 223 616 214 590 q 239 661 232 642 q 248 684 245 680 q 220 568 236 643 q 198 469 203 494 q 130 300 163 354 q 164 391 144 336 q 149 349 161 384 q 129 296 136 315 q 139 323 132 304 q 152 357 146 343 q 156 370 157 370 q 144 338 153 362 q 130 299 136 315 q 125 285 125 283 q 168 403 163 388 q 122 277 142 331 q 131 301 123 283 q 143 332 138 319 q 148 349 148 346 q 100 228 146 346 l 80 190 q 85 209 80 191 q 119 300 117 297 q 61 138 109 260 q 76 180 69 151 q 94 229 83 210 q 126 248 104 248 q 180 265 140 255 q 239 288 220 275 q 404 373 355 338 q 598 586 548 463 q 608 587 612 602 q 575 503 601 552 q 509 391 540 437 q 437 312 479 346 q 157 157 320 218 q 92 134 130 132 q 76 179 53 138 q 79 184 77 182 q 99 240 79 184 q 94 227 96 235 l 77 183 q 83 202 77 187 q 155 366 107 282 q 122 275 129 290 l 153 362 q 142 332 151 355 l 126 289 q 138 321 129 297 q 153 359 148 345 q 156 369 157 373 q 146 342 153 363 q 133 307 138 321 q 129 294 127 292 q 138 321 132 301 q 151 355 145 340 q 157 373 156 370 q 145 340 155 366 q 135 312 136 312 q 142 334 134 312 q 167 398 151 361 q 190 442 183 435 q 177 406 186 431 q 161 361 168 380 q 153 342 155 342 q 179 456 160 366 q 214 594 198 547 q 256 708 237 666 q 247 678 254 699 q 234 642 240 658 q 222 618 228 627 q 252 814 233 678 q 283 1020 270 949 q 307 1240 290 1152 q 340 1321 317 1289 z "},"и":{"ha":879,"x_min":64,"x_max":819,"o":"m 502 1196 q 519 1048 514 1146 q 532 910 524 951 q 538 791 537 868 q 540 684 538 715 q 515 414 544 582 q 505 378 513 400 q 489 338 496 357 q 480 316 481 320 q 503 374 486 347 q 507 374 507 382 q 503 353 507 369 q 472 262 495 320 q 445 190 449 205 q 458 228 449 202 q 475 273 468 254 q 487 297 481 292 q 430 114 472 213 q 441 163 431 119 q 468 224 452 208 q 442 140 464 195 q 419 80 420 84 q 430 111 423 87 q 449 151 444 151 q 412 56 429 73 q 408 54 410 53 q 430 118 416 102 q 437 118 434 122 q 423 80 434 110 l 408 41 q 456 179 420 87 q 446 151 452 171 q 435 119 439 132 q 426 106 430 106 q 432 137 427 113 q 444 176 437 161 q 461 199 450 191 q 439 144 452 161 q 441 164 435 137 q 499 339 452 212 q 481 290 495 327 q 460 233 468 254 q 482 328 467 274 q 507 393 498 382 q 486 335 502 359 q 480 338 480 326 q 483 357 481 345 q 499 602 507 517 q 483 871 496 792 q 481 922 481 888 q 478 983 480 956 q 471 1034 476 1010 q 502 1196 449 1131 m 100 1082 q 274 1179 148 1141 q 533 1204 422 1218 q 724 1173 652 1203 q 741 1169 730 1172 q 758 1164 751 1166 q 775 1159 765 1162 q 791 1152 785 1156 q 804 1143 796 1149 q 814 1131 812 1137 q 819 1115 817 1124 q 818 1096 822 1105 q 779 1042 815 1054 q 715 1058 743 1029 q 481 1092 618 1090 q 418 1088 464 1090 q 347 1084 372 1086 q 284 1078 321 1082 q 216 1064 247 1073 q 155 1042 184 1055 q 125 1023 145 1038 q 89 999 104 1008 q 64 996 73 990 q 100 1082 79 1055 z "},"В":{"ha":837,"x_min":66,"x_max":766,"o":"m 96 225 q 172 286 119 250 q 247 343 225 323 q 376 472 319 388 q 429 549 392 494 q 488 633 465 605 q 620 846 568 739 q 629 859 623 850 q 640 877 635 868 q 651 894 646 886 q 660 907 656 902 q 665 910 663 911 q 659 894 662 905 q 651 873 655 883 q 644 853 647 863 q 638 838 640 844 q 636 833 636 833 q 648 867 640 842 q 663 909 656 891 q 670 928 670 926 l 648 869 q 654 888 650 875 q 707 1000 685 983 q 671 905 689 952 q 669 1112 689 998 q 599 1189 651 1164 q 484 1217 547 1214 q 393 1217 445 1219 q 305 1200 342 1214 q 201 1118 251 1177 q 216 1163 208 1130 q 235 1208 225 1196 q 212 1129 232 1180 q 191 1072 193 1078 q 201 1099 194 1078 q 213 1134 208 1119 q 221 1149 218 1149 q 195 954 201 1040 q 282 632 209 812 q 307 588 293 612 q 332 549 321 564 q 362 507 342 534 q 389 468 382 479 q 559 334 467 373 q 664 274 590 302 q 762 229 738 245 q 765 178 773 209 q 737 134 757 146 q 692 138 718 121 q 638 159 673 146 q 576 183 604 171 q 529 213 549 195 q 504 228 526 214 q 477 245 481 241 q 454 260 472 248 q 428 278 435 271 q 407 296 420 285 q 384 317 393 307 q 365 339 374 328 q 214 593 252 463 q 156 825 179 682 q 157 885 155 854 q 168 962 160 916 q 178 1023 176 1009 q 225 1165 193 1096 q 199 1096 218 1130 q 195 1097 194 1086 q 199 1116 195 1103 q 331 1303 243 1267 q 394 1322 359 1317 q 459 1327 429 1328 q 525 1326 490 1326 q 669 1282 621 1314 q 686 1265 678 1274 q 698 1244 693 1256 q 707 1223 703 1232 q 713 1199 711 1214 q 716 1177 715 1184 q 718 1152 718 1169 q 719 1128 719 1134 q 719 1103 719 1123 q 719 1081 719 1084 q 647 863 711 955 q 658 892 648 869 l 673 935 q 621 793 635 829 q 674 939 669 922 q 666 913 673 933 q 656 886 659 892 q 648 862 654 880 q 637 836 642 844 q 627 812 633 827 q 614 786 620 796 q 602 763 609 776 q 587 739 595 750 q 571 718 579 728 q 554 685 568 712 q 534 648 540 658 q 516 618 528 639 q 494 583 505 598 q 472 555 483 568 q 421 484 454 530 q 362 399 388 437 q 315 328 336 362 q 210 234 283 289 q 111 155 136 179 q 68 136 84 126 q 71 175 52 144 q 96 225 81 205 z "},"д":{"ha":845,"x_min":62,"x_max":772,"o":"m 100 251 q 289 251 109 251 q 417 250 330 247 q 547 250 505 254 q 602 255 560 251 q 671 257 643 259 q 724 245 699 255 q 771 238 754 258 q 766 194 788 218 q 749 157 766 170 q 715 152 732 144 q 696 187 697 160 q 635 362 643 275 q 623 459 632 378 q 606 582 614 540 q 590 683 604 612 q 574 793 576 754 q 568 908 566 833 q 563 1023 570 983 q 547 1202 562 1059 q 521 1183 538 1222 q 500 1145 506 1149 q 441 1039 487 1120 q 452 1070 444 1046 l 473 1127 q 387 928 430 998 q 370 888 384 920 l 361 865 q 368 884 362 869 l 392 947 q 387 928 392 943 q 353 842 372 887 q 309 743 334 798 q 271 659 285 689 q 289 704 275 667 l 315 768 q 313 765 315 768 q 244 553 292 673 q 256 592 248 563 q 270 641 263 621 q 282 659 277 661 q 209 427 263 571 q 223 468 213 437 q 241 511 233 499 q 214 430 235 486 q 190 365 193 374 q 209 418 194 373 l 225 461 l 225 458 q 157 283 199 369 q 171 320 163 296 q 186 363 179 345 q 195 387 193 381 q 133 224 165 273 q 152 276 140 241 q 171 327 164 311 q 165 305 170 324 q 159 281 160 286 q 152 260 157 277 q 143 237 146 244 q 134 217 140 229 q 123 195 129 205 q 110 178 117 186 q 125 241 102 194 q 163 297 149 289 q 152 270 159 289 q 140 236 145 251 q 132 218 134 221 q 144 254 136 231 q 157 292 152 278 q 171 326 161 307 q 190 359 180 345 q 176 326 186 351 q 161 283 167 300 q 153 269 155 266 q 173 331 161 300 q 204 408 184 362 q 229 468 224 454 q 214 427 225 458 q 196 376 203 396 q 189 361 189 355 q 203 399 193 373 q 220 446 213 426 q 228 471 227 465 q 216 441 224 463 q 203 403 209 419 q 197 385 198 387 q 247 532 201 404 q 236 501 244 524 q 222 463 228 479 q 216 449 216 448 q 234 520 224 473 q 256 604 244 567 q 286 671 269 642 q 276 642 283 663 q 263 606 269 621 q 255 589 258 590 q 283 688 264 635 q 313 771 301 741 q 355 869 326 802 q 393 955 385 937 q 376 903 389 941 q 362 864 362 865 q 471 1120 412 1020 q 467 1108 472 1123 q 453 1071 461 1093 q 442 1040 445 1048 q 479 1142 454 1089 q 520 1219 491 1169 q 560 1294 549 1270 q 589 1287 583 1333 q 590 1265 589 1280 q 594 1234 593 1241 q 601 1164 595 1219 q 608 1073 606 1108 q 609 1002 610 1038 q 629 825 610 940 q 651 693 648 709 q 666 568 659 650 q 678 452 673 487 q 769 263 700 324 q 762 176 781 224 q 701 136 742 129 q 669 132 692 134 q 634 127 647 129 q 603 123 621 125 q 568 123 585 122 q 534 127 551 125 q 452 129 506 130 q 370 130 399 127 q 285 134 351 130 q 183 136 218 137 q 162 136 175 137 q 138 135 149 136 q 112 135 126 134 q 88 138 98 136 q 71 146 79 140 q 62 161 62 152 q 66 187 62 171 q 83 220 72 199 q 100 251 95 241 z "},"ц":{"ha":837,"x_min":72,"x_max":751,"o":"m 481 1356 q 484 1240 487 1317 q 477 1124 480 1162 q 465 1008 473 1085 q 453 894 457 932 q 428 732 444 840 q 403 571 412 624 q 393 530 399 549 q 373 477 387 510 q 357 438 359 445 q 368 468 359 444 q 388 513 381 513 q 392 509 389 513 q 379 386 385 433 q 356 274 373 339 q 315 157 339 209 q 325 189 317 164 q 339 228 332 213 q 351 237 346 243 q 323 38 358 103 q 312 60 313 41 q 313 107 311 79 q 313 145 315 136 q 336 231 311 178 q 347 244 345 244 q 340 224 346 239 q 323 182 326 182 q 326 209 321 182 q 353 420 347 323 q 372 484 354 441 q 389 528 389 528 q 368 471 381 494 q 363 473 362 463 q 368 495 365 480 q 386 619 372 528 q 408 774 400 711 q 422 899 416 838 q 444 1249 445 1044 q 481 1356 450 1312 m 172 1286 q 153 1135 170 1233 q 134 1008 137 1038 q 126 964 132 993 q 117 916 121 935 q 114 873 114 898 q 119 827 114 848 q 294 758 152 745 q 377 764 330 758 q 460 777 425 770 q 542 783 496 783 q 625 772 587 783 q 711 707 677 753 q 750 605 745 661 q 715 285 796 452 l 712 277 l 731 334 q 734 338 732 336 q 732 315 742 343 q 720 282 728 304 q 712 262 713 266 q 707 248 709 256 l 704 240 q 709 258 704 240 l 711 259 l 730 309 q 723 289 728 304 q 662 132 689 175 q 676 170 667 144 q 692 217 685 197 q 704 241 699 237 q 689 174 694 198 q 670 115 684 151 q 639 54 656 80 q 651 85 643 62 q 665 125 659 109 q 673 141 671 141 q 659 99 669 132 q 640 46 648 66 q 623 26 631 26 q 644 85 627 50 q 670 133 661 121 l 647 72 q 652 88 650 77 q 685 165 675 160 q 663 110 678 133 q 658 113 658 100 q 661 127 659 118 q 723 281 667 179 q 711 250 719 273 q 696 210 703 228 q 686 191 690 193 q 736 331 693 210 q 707 255 709 251 q 711 274 705 256 q 750 381 726 328 q 727 321 741 340 q 722 326 722 316 q 724 347 722 332 q 696 555 732 439 q 609 652 670 617 q 483 674 548 688 q 411 667 460 673 q 334 657 362 661 q 264 652 305 654 q 187 650 222 650 q 99 686 136 644 q 72 780 62 728 q 117 935 79 830 q 94 875 106 891 q 95 902 88 867 q 111 1001 103 948 q 127 1118 118 1054 q 141 1218 136 1183 q 172 1286 152 1257 z "},"н":{"ha":1088,"x_min":77,"x_max":1010,"o":"m 849 12 q 895 186 837 87 q 869 125 890 155 q 864 123 864 117 q 868 146 864 130 l 905 247 l 905 245 l 888 198 q 897 222 890 203 q 903 241 901 233 l 905 243 l 884 190 q 890 208 886 194 l 910 260 q 905 244 909 255 q 891 217 899 218 q 895 237 886 216 q 929 332 907 279 q 909 282 921 300 q 907 282 907 279 q 914 309 907 286 q 943 393 924 339 q 970 464 963 446 q 954 420 966 453 q 939 380 941 387 l 951 412 q 943 388 949 408 q 939 385 935 369 q 955 461 955 461 q 969 658 968 545 q 966 856 970 770 q 743 1135 943 1013 q 544 1195 655 1202 q 282 1120 397 1202 q 123 947 178 1051 q 136 982 126 952 q 152 1025 148 1025 q 155 1021 155 1027 q 145 980 153 1013 q 134 934 137 947 q 125 892 132 921 q 118 846 119 864 q 116 804 117 829 q 118 758 115 780 q 126 715 121 736 q 133 618 127 693 q 142 509 138 544 q 157 418 145 475 q 186 317 168 362 q 199 264 189 308 q 214 202 209 220 q 234 155 220 184 q 267 103 248 125 q 264 31 288 73 q 218 7 243 -7 q 198 33 206 12 q 159 155 179 73 q 126 271 140 237 q 95 490 106 347 q 77 675 84 632 q 83 764 76 716 q 96 840 90 812 q 121 930 103 868 q 142 1008 138 991 q 323 1233 193 1147 q 601 1303 454 1318 q 796 1241 704 1302 q 1002 977 979 1122 q 1010 905 1009 944 q 1009 819 1010 865 q 1008 746 1008 773 q 937 374 1006 530 q 948 406 939 378 q 940 384 947 400 l 926 346 q 932 361 928 350 q 951 407 939 389 q 952 408 952 410 q 945 385 952 404 q 892 232 926 317 q 918 297 903 271 q 921 297 922 302 q 914 273 920 290 l 894 216 q 901 237 897 222 l 910 259 l 886 193 q 888 201 887 195 q 876 164 879 178 q 883 187 876 164 q 898 220 886 210 q 902 217 902 222 q 898 199 902 213 q 876 128 894 174 q 853 84 859 83 q 876 137 857 111 q 888 127 890 155 q 887 115 888 122 q 849 12 880 61 z "}}}
